<svg width="1988" height="941" viewBox="0 0 1988 941" fill="none" xmlns="http://www.w3.org/2000/svg">
<g clip-path="url(#clip0)">
<path d="M567.69 940.07L575.54 933.21C588.91 921.53 607.12 917.08 624.37 921.28C643.8 926.01 664.26 919.74 677.7 904.94L684.42 897.53C688.38 893.17 693.33 889.84 698.86 887.83L726.16 877.88C744.52 871.19 754.28 851.16 748.26 832.58C742.87 815.94 726.38 805.51 709.03 807.77L616.56 819.82C612.4 820.36 608.17 820.18 604.08 819.28L567.4 811.22C560.6 809.73 553.52 810.22 547 812.63L523.57 821.31C520 822.63 516.25 823.38 512.45 823.54L343.98 830.47C343.72 830.48 343.46 830.52 343.21 830.6L242.83 859.94C241.14 860.43 239.38 859.47 238.87 857.79C238.46 856.44 237.22 855.51 235.81 855.51H201.5L175.5 638.51L146.5 403.51L117.78 410.25C116.57 410.53 115.42 411.05 114.4 411.77L100.04 421.88L89.63 181.71C88.98 166.76 81.84 152.84 70.08 143.6L36.15 116.93C25.9 108.88 12.98 105.03 0 106.15V941L567.69 940.07Z" fill="#B6EC82"/>
<path d="M1963.03 371.64C1954.47 374.43 1945.98 377.73 1937.78 381.45C1924.94 387.28 1912.54 394.29 1900.92 402.27L1807.89 466.13C1803.25 469.32 1798.44 472.39 1793.61 475.27L1742.75 505.54C1737.19 508.85 1731.49 511.93 1725.7 514.82H1987.89V363.97L1963.03 371.64Z" fill="#B6EC82"/>
<path d="M1771.86 118.31L1778.7 109.55C1788.37 97.16 1796.74 83.72 1803.61 69.58C1803.74 69.32 1803.81 69.03 1803.81 68.73L1804.1 49.75C1804.1 49.47 1804.05 49.19 1803.93 48.93L1794.08 26.42C1793.77 25.72 1793.08 25.24 1792.32 25.24H1792.31C1789.85 25.24 1787.39 25.54 1784.99 26.12L1693.73 48.26C1693.19 48.39 1692.73 48.74 1692.46 49.23L1672.3 85.81C1671.86 86.61 1672.03 87.62 1672.71 88.23L1713.46 125.08C1713.69 125.28 1713.86 125.54 1713.97 125.82L1717.5 134.8C1717.86 135.72 1718.85 136.23 1719.81 136L1766.5 124.5C1766.93 124.39 1767.31 124.15 1767.59 123.8L1771.86 118.31Z" fill="#B6EC82"/>
<path d="M1994.26 353.73L1899.99 106.34C1899.14 104.11 1900.42 101.63 1902.74 101.04L1990.46 78.89C1992.61 78.35 1993.9 76.17 1993.36 74.02C1992.81 71.88 1990.64 70.59 1988.51 71.13L1898.06 93.98C1896.1 94.48 1894.07 93.44 1893.34 91.55L1876.41 47.7C1875.55 45.47 1876.82 43 1879.13 42.39C1897.18 37.68 1971.62 18.51 1989.51 13.9C1991.65 13.35 1992.94 11.16 1992.38 9.01999C1991.82 6.88999 1989.65 5.60999 1987.51 6.15999L1872.84 35.77C1871.45 36.13 1869.99 36.07 1868.63 35.59L1807.38 13.83C1799.11 10.89 1790.23 10.43 1781.71 12.5L167.2 404.24C162 405.5 158.59 410.46 159.26 415.77L212.4 834.27C212.56 835.57 211.6 836.73 210.29 836.81L209.44 836.86C208.12 836.94 207.15 838.13 207.34 839.43L208.68 848.84C208.85 850.05 209.95 850.9 211.16 850.76L224.67 849.26C225.94 849.12 226.84 847.96 226.66 846.7L225.3 837.17C225.13 835.96 224.03 835.11 222.82 835.25C221.6 835.38 220.49 834.51 220.34 833.29L211.05 760.12C210.8 758.11 212.08 756.23 214.04 755.74L842.71 597.24C844.9 596.69 847.12 598.06 847.6 600.27L869 699.36C869.45 701.46 868.16 703.55 866.08 704.08L516.6 792.95C494.24 798.64 471.22 802.04 448.18 803.07L373.52 806.4C372.31 806.45 371.38 807.49 371.44 808.69L371.88 816.82C371.95 818.02 372.97 818.94 374.17 818.88L388.83 818.11C390.03 818.05 390.95 817.03 390.89 815.83C390.83 814.62 391.76 813.6 392.97 813.55L448.54 811.07C472.13 810.02 495.69 806.53 518.58 800.71L567.96 788.15C569.26 787.82 570.6 788.54 571.03 789.81L576.89 806.74C577.24 807.76 578.29 808.37 579.35 808.17L602.29 803.92C603.5 803.7 604.29 802.51 604.02 801.3L600.99 787.66C600.73 786.47 599.54 785.73 598.36 786.01L581.68 789.98C580.44 790.28 579.16 789.62 578.69 788.43C578.11 786.98 578.94 785.36 580.45 784.97L867.5 711.96C869.7 711.4 871.92 712.78 872.4 714.99L879.12 746.1C879.52 747.97 878.54 749.87 876.78 750.62L818.7 775.35C817.68 775.78 817.21 776.96 817.64 777.97C818.07 778.99 819.25 779.46 820.26 779.03L876.22 755.21C878.53 754.23 881.17 755.59 881.7 758.05L889.77 795.44C890.24 797.6 892.36 798.97 894.52 798.51C896.68 798.04 898.05 795.92 897.59 793.76L893.5 774.83C893.09 772.92 894.11 770.99 895.93 770.27L1028.96 717.25L1263.98 630.52C1275.11 626.41 1286.55 622.73 1298 619.58L1362.07 601.95C1380.19 596.96 1398.79 592.95 1417.36 590.04L1511.54 575.24C1523.41 573.37 1535.26 570.65 1546.75 567.13L1683.62 525.25C1703.22 519.25 1722.1 510.89 1739.71 500.41L1790.57 470.14C1795.29 467.33 1799.99 464.33 1804.53 461.21L1897.56 397.35C1909.47 389.17 1922.18 382 1935.33 376.02C1943.73 372.2 1952.43 368.82 1961.2 365.96L1993.48 355.45C1994.16 355.19 1994.52 354.42 1994.26 353.73ZM1965.69 305.84L1520.73 418.03C1518.66 418.55 1516.55 417.36 1515.93 415.32L1487.59 322.91C1486.92 320.72 1488.22 318.41 1490.44 317.86L1926.36 209.46C1928.32 208.97 1930.33 210.02 1931.06 211.9L1966.58 304.12C1966.86 304.85 1966.44 305.65 1965.69 305.84ZM1892.4 111.51L1925.27 196.86C1926.13 199.1 1924.84 201.6 1922.5 202.18L1487.68 310.3C1485.62 310.82 1483.51 309.63 1482.89 307.59L1455.94 219.73C1455.27 217.53 1456.58 215.22 1458.81 214.67L1887.71 109.05C1889.66 108.58 1891.67 109.63 1892.4 111.51ZM1472.14 314.18L832.74 473.98C830.55 474.53 828.34 473.15 827.86 470.94L807.99 378.93C807.53 376.81 808.84 374.72 810.94 374.2L1443.24 218.5C1445.3 217.99 1447.4 219.18 1448.02 221.21L1474.98 309.12C1475.66 311.32 1474.36 313.63 1472.14 314.18ZM1425.82 107.08L1783.57 20.27C1790.58 18.57 1797.88 18.95 1804.68 21.36C1804.68 21.36 1854.4 39.02 1864.36 42.56C1865.46 42.95 1866.33 43.8 1866.74 44.88L1886.5 96.18C1887.37 98.43 1886.06 100.92 1883.73 101.5L1456.03 207.13C1453.97 207.64 1451.87 206.45 1451.25 204.42L1422.95 112.14C1422.26 109.93 1423.58 107.62 1425.82 107.08ZM786.76 262.14L1410.24 110.85C1412.3 110.35 1414.39 111.54 1415.01 113.56L1443.33 205.89C1444 208.09 1442.69 210.4 1440.46 210.95L809.48 366.33C807.29 366.87 805.09 365.49 804.61 363.29L783.79 266.87C783.34 264.75 784.65 262.65 786.76 262.14ZM180.15 516.72L167.2 414.76C167.04 413.5 167.85 412.32 169.09 412.02L771.21 265.92C773.4 265.39 775.59 266.76 776.06 268.96L796.89 365.44C797.35 367.56 796.04 369.65 793.94 370.17L185.07 520.1C182.75 520.67 180.45 519.09 180.15 516.72ZM194.4 628.92L182.18 532.7C181.92 530.68 183.22 528.8 185.19 528.31L795.41 378.04C797.6 377.5 799.8 378.88 800.28 381.08L820.16 473.14C820.62 475.25 819.31 477.34 817.22 477.86L199.33 632.29C197.01 632.88 194.7 631.29 194.4 628.92ZM841.29 589.33L213.97 747.49C211.64 748.08 209.33 746.5 209.02 744.12L196.42 644.91C196.16 642.9 197.45 641.02 199.42 640.53L650.42 527.81C652.61 527.26 654.82 528.64 655.3 530.85L665.47 577.95C665.92 580.05 664.64 582.13 662.56 582.67C661.4 582.97 660.68 584.11 660.9 585.29L662.75 595.02C662.99 596.27 664.21 597.08 665.45 596.81L680.02 593.66C681.23 593.4 682 592.22 681.76 591.01L679.78 580.89C679.53 579.63 678.29 578.83 677.04 579.12L673.15 580.03C670.97 580.54 668.8 579.17 668.33 576.98L658.15 529.87C657.69 527.76 659 525.67 661.09 525.14L818.64 485.76C820.83 485.21 823.04 486.59 823.52 488.8L844.21 584.61C844.68 586.71 843.38 588.8 841.29 589.33ZM851.92 582.38L831.24 486.6C830.78 484.49 832.09 482.4 834.18 481.88L1474.89 321.75C1476.95 321.23 1479.06 322.42 1479.68 324.46L1508.03 416.9C1508.7 419.09 1507.4 421.39 1505.18 421.95L856.81 585.42C854.62 585.97 852.4 584.59 851.92 582.38ZM886.05 740.42L855.3 598.03C854.84 595.92 856.14 593.83 858.23 593.31L1507.93 429.5C1510 428.98 1512.11 430.17 1512.73 432.21L1528.56 483.82C1529.18 485.83 1528.13 487.97 1526.17 488.73L1245.05 596.78L891.49 743.27C889.19 744.23 886.58 742.86 886.05 740.42ZM1553.29 556.73L1544.37 559.46C1533.2 562.88 1521.8 565.5 1510.26 567.32L1416.08 582.12C1397.22 585.08 1378.32 589.16 1359.91 594.22L1295.84 611.85C1284.18 615.06 1272.52 618.81 1261.18 622.99L1026.11 709.74L895.44 761.82C893.14 762.74 890.57 761.37 890.05 758.95L889.48 756.31C889.07 754.42 890.07 752.51 891.86 751.77L1247.98 604.21L1525.77 497.44C1528.29 496.47 1531.03 498.23 1531.2 500.92L1531.5 505.74C1531.54 506.32 1531.7 506.89 1531.98 507.4L1555.63 550.99C1556.85 553.22 1555.71 555.99 1553.29 556.73ZM1758.51 479.86L1735.59 493.5C1718.52 503.66 1700.24 511.76 1681.25 517.57L1568.91 551.95C1567.09 552.51 1565.13 551.71 1564.22 550.03L1539.86 505.14C1539.58 504.63 1539.42 504.06 1539.38 503.48L1538.87 495.4C1538.76 493.66 1539.8 492.04 1541.43 491.42L1719.81 422.86C1723.34 421.46 1727.36 422.77 1729.38 425.97L1759.85 474.28C1761.05 476.2 1760.44 478.71 1758.51 479.86ZM1982.96 350.42L1958.7 358.32C1949.65 361.27 1940.66 364.76 1931.99 368.7C1918.41 374.87 1905.3 382.28 1893 390.72L1799.97 454.58C1795.57 457.6 1791.02 460.51 1786.45 463.23L1772.27 471.67C1770.41 472.78 1768 472.2 1766.84 470.37L1736.15 421.71C1732.07 415.24 1723.95 412.6 1716.9 415.41L1541.16 482.96C1539 483.79 1536.58 482.62 1535.9 480.4L1520.63 430.63C1519.96 428.44 1521.26 426.14 1523.48 425.58L1968.9 313.28C1969.53 313.12 1970.19 313.46 1970.42 314.07L1983.77 348.73C1984.03 349.42 1983.66 350.19 1982.96 350.42Z" fill="#FBFBFF" stroke="#D7DAE2" stroke-width="0.75" stroke-miterlimit="10"/>
<path d="M1679.49 511.84C1698.02 506.17 1715.86 498.27 1732.52 488.35L1753.68 475.76L1724.31 429.19C1723.97 428.64 1723.37 428.32 1722.73 428.32C1722.49 428.32 1722.26 428.37 1722.04 428.45L1722.01 428.46L1721.98 428.47L1545.02 496.48C1545.55 501.12 1546.99 505.67 1549.21 509.77L1568.73 545.73L1679.49 511.84Z" fill="#F3FDDF"/>
<path d="M1525.79 503.87L1250.21 609.79L985.4 719.52L1023.89 704.18L1023.96 704.15L1024.03 704.12L1259.1 617.37C1270.6 613.13 1282.42 609.32 1294.25 606.07L1358.32 588.44C1376.95 583.31 1396.07 579.19 1415.15 576.19L1509.33 561.39C1520.55 559.63 1531.75 557.05 1542.61 553.72L1549.19 551.71L1530.77 517.76C1528.43 513.43 1526.74 508.72 1525.79 503.87Z" fill="#F3FDDF"/>
<path d="M656.86 596.12L657.89 601.58L614.68 611.59L581.2 619.34L577.54 600.67L568.9 554.36L649.88 534.12L659.26 577.55C656.13 579.21 654.32 582.77 655.01 586.39L656.86 596.12Z" fill="#DCD7F7" stroke="white" stroke-miterlimit="10"/>
<path d="M828.02 538.02L748.86 557.82L740.04 511.59L768.42 504.5L818.1 492.08L828.02 538.02Z" fill="#DCD7F7" stroke="white" stroke-miterlimit="10"/>
</g>
<defs>
<clipPath id="clip0">
<rect width="1988" height="941" fill="white"/>
</clipPath>
</defs>
</svg>
