<svg width="159" height="159" viewBox="0 0 159 159" fill="none" xmlns="http://www.w3.org/2000/svg">
<circle cx="79.5" cy="79.5" r="79.5" fill="white"/>
<circle cx="79.5" cy="79.5" r="77.5" stroke="#DCDCDF" stroke-width="4" stroke-dasharray="2 2"/>
<line x1="78.5" y1="39.5" x2="78.5" y2="118.5" stroke="#898993" stroke-linecap="round" stroke-linejoin="round"/>
<line x1="118.5" y1="78.5" x2="39.5" y2="78.5" stroke="#898993" stroke-linecap="round" stroke-linejoin="round"/>
<path d="M12.8412 78.073V76.6588L9.99994 79.5L12.8412 82.3412V80.927L11.4142 79.5L12.8412 78.073Z" fill="#373745"/>
<path d="M146.159 80.927V82.3412L149 79.5L146.159 76.6588V78.073L147.586 79.5L146.159 80.927Z" fill="#373745"/>
<path d="M78.0729 146.159H76.6587L79.4999 149L82.3412 146.159H80.9269L79.4999 147.586L78.0729 146.159Z" fill="#E93E3E"/>
<path d="M78.0729 12.8412L79.4999 11.4142L80.9269 12.8412H82.3411L79.4999 10L76.6587 12.8412H78.0729Z" fill="#5D76CB"/>
<path d="M82.3574 28.293C82.252 29.1953 81.918 29.8926 81.3555 30.3848C80.7969 30.873 80.0527 31.1172 79.123 31.1172C78.1152 31.1172 77.3066 30.7559 76.6973 30.0332C76.0918 29.3105 75.7891 28.3438 75.7891 27.1328V26.3125C75.7891 25.5195 75.9297 24.8223 76.2109 24.2207C76.4961 23.6191 76.8984 23.1582 77.418 22.8379C77.9375 22.5137 78.5391 22.3516 79.2227 22.3516C80.1289 22.3516 80.8555 22.6055 81.4023 23.1133C81.9492 23.6172 82.2676 24.3164 82.3574 25.2109H81.2266C81.1289 24.5312 80.916 24.0391 80.5879 23.7344C80.2637 23.4297 79.8086 23.2773 79.2227 23.2773C78.5039 23.2773 77.9395 23.543 77.5293 24.0742C77.123 24.6055 76.9199 25.3613 76.9199 26.3418V27.168C76.9199 28.0938 77.1133 28.8301 77.5 29.377C77.8867 29.9238 78.4277 30.1973 79.123 30.1973C79.748 30.1973 80.2266 30.0566 80.5586 29.7754C80.8945 29.4902 81.1172 28.9961 81.2266 28.293H82.3574Z" fill="#5D76CB"/>
<path d="M84.4102 135.01C84.4102 135.846 84.2695 136.576 83.9883 137.201C83.707 137.822 83.3086 138.297 82.793 138.625C82.2773 138.953 81.6758 139.117 80.9883 139.117C80.3398 139.117 79.7578 138.961 79.2422 138.648C78.7305 138.336 78.3281 137.889 78.0352 137.307C77.7461 136.725 77.5859 136.045 77.5547 135.268H76.3301V139H75.2051V130.469H76.3301V134.383H77.5488C77.5605 133.578 77.707 132.873 77.9883 132.268C78.2695 131.658 78.6699 131.188 79.1895 130.855C79.709 130.52 80.3047 130.352 80.9766 130.352C81.6602 130.352 82.2617 130.518 82.7812 130.85C83.3047 131.178 83.707 131.656 83.9883 132.285C84.2695 132.91 84.4102 133.639 84.4102 134.471V135.01ZM83.291 134.459C83.291 133.447 83.0879 132.672 82.6816 132.133C82.2754 131.59 81.707 131.318 80.9766 131.318C80.2656 131.318 79.7051 131.59 79.2949 132.133C78.8887 132.672 78.6797 133.422 78.668 134.383V135.01C78.668 135.99 78.873 136.762 79.2832 137.324C79.6973 137.883 80.2656 138.162 80.9883 138.162C81.7148 138.162 82.2773 137.898 82.6758 137.371C83.0742 136.84 83.2793 136.08 83.291 135.092V134.459Z" fill="#E93E3E"/>
<path d="M27.8047 76.7598C27.8047 76.3066 27.6387 75.9473 27.3066 75.6816C26.9785 75.4121 26.5156 75.2773 25.918 75.2773C25.418 75.2773 24.998 75.416 24.6582 75.6934C24.3223 75.9668 24.1543 76.3066 24.1543 76.7129H23.0293C23.0293 76.2598 23.1523 75.8535 23.3984 75.4941C23.6484 75.1348 23.9961 74.8555 24.4414 74.6562C24.8867 74.4531 25.3789 74.3516 25.918 74.3516C26.8711 74.3516 27.6113 74.5664 28.1387 74.9961C28.666 75.4219 28.9297 76.0156 28.9297 76.7773C28.9297 77.1719 28.8086 77.5312 28.5664 77.8555C28.3242 78.1797 27.9863 78.4355 27.5527 78.623C28.5566 78.959 29.0586 79.625 29.0586 80.6211C29.0586 81.3867 28.7734 81.9941 28.2031 82.4434C27.6328 82.8926 26.8711 83.1172 25.918 83.1172C25.3516 83.1172 24.8359 83.0176 24.3711 82.8184C23.9102 82.6152 23.5508 82.3281 23.293 81.957C23.0352 81.5859 22.9062 81.1445 22.9062 80.6328H24.0312C24.0312 81.082 24.209 81.457 24.5645 81.7578C24.9199 82.0547 25.3711 82.2031 25.918 82.2031C26.5312 82.2031 27.0195 82.0605 27.3828 81.7754C27.75 81.4902 27.9336 81.1133 27.9336 80.6445C27.9336 79.6445 27.3145 79.1348 26.0762 79.1152H25.0215V78.1895H26.0703C26.6406 78.1777 27.0723 78.0488 27.3652 77.8027C27.6582 77.5566 27.8047 77.209 27.8047 76.7598Z" fill="black"/>
<path d="M131.252 83V74.4688H134.041C134.967 74.4688 135.662 74.6602 136.127 75.043C136.596 75.4258 136.83 75.9922 136.83 76.7422C136.83 77.1406 136.717 77.4941 136.49 77.8027C136.264 78.1074 135.955 78.3438 135.564 78.5117C136.025 78.6406 136.389 78.8867 136.654 79.25C136.924 79.6094 137.059 80.0391 137.059 80.5391C137.059 81.3047 136.811 81.9062 136.314 82.3438C135.818 82.7812 135.117 83 134.211 83H131.252ZM132.377 79.0098V82.0801H134.234C134.758 82.0801 135.17 81.9453 135.471 81.6758C135.775 81.4023 135.928 81.0273 135.928 80.5508C135.928 79.5234 135.369 79.0098 134.252 79.0098H132.377ZM132.377 78.1074H134.076C134.568 78.1074 134.961 77.9844 135.254 77.7383C135.551 77.4922 135.699 77.1582 135.699 76.7363C135.699 76.2676 135.562 75.9277 135.289 75.7168C135.016 75.502 134.6 75.3945 134.041 75.3945H132.377V78.1074Z" fill="black"/>
</svg>
