<svg width="140" height="140" viewBox="0 0 140 140" fill="none" xmlns="http://www.w3.org/2000/svg">
<circle cx="70" cy="70" r="70" fill="white"/>
<path d="M67.991 12L70 9.99101L72.009 12H74L70 8L66 12H67.991Z" fill="#5D76CB"/>
<path d="M128 67.991L130.009 70L128 72.009L128 74L132 70L128 66L128 67.991Z" fill="#373745"/>
<path d="M67.991 128L70 130.009L72.009 128H74L70 132L66 128H67.991Z" fill="#E93E3E"/>
<path d="M12 67.991L9.99101 70L12 72.009L12 74L8 70L12 66L12 67.991Z" fill="#373745"/>
<path d="M73.0332 31.7598C72.9329 32.8216 72.541 33.651 71.8574 34.248C71.1738 34.8405 70.2646 35.1367 69.1299 35.1367C68.3369 35.1367 67.6374 34.9499 67.0312 34.5762C66.4297 34.1979 65.9648 33.6624 65.6367 32.9697C65.3086 32.277 65.1377 31.4727 65.124 30.5566V29.627C65.124 28.6882 65.2904 27.861 65.623 27.1455C65.9557 26.43 66.432 25.8786 67.0518 25.4912C67.6761 25.1038 68.3962 24.9102 69.2119 24.9102C70.3102 24.9102 71.1943 25.2087 71.8643 25.8057C72.5342 26.4027 72.9238 27.2458 73.0332 28.335H71.3105C71.2285 27.6195 71.0189 27.1045 70.6816 26.79C70.349 26.471 69.859 26.3115 69.2119 26.3115C68.46 26.3115 67.8812 26.5872 67.4756 27.1387C67.0745 27.6855 66.8695 28.4899 66.8604 29.5518V30.4336C66.8604 31.5091 67.0518 32.3294 67.4346 32.8945C67.8219 33.4596 68.387 33.7422 69.1299 33.7422C69.8089 33.7422 70.3193 33.5895 70.6611 33.2842C71.0029 32.9788 71.2194 32.4707 71.3105 31.7598H73.0332Z" fill="#5D76CB"/>
<path d="M75.3857 113.283C75.3857 114.258 75.2171 115.115 74.8799 115.854C74.5426 116.587 74.0596 117.152 73.4307 117.549C72.8063 117.941 72.0863 118.137 71.2705 118.137C70.5094 118.137 69.8281 117.964 69.2266 117.617C68.625 117.271 68.1442 116.774 67.7842 116.127C67.4242 115.48 67.2122 114.726 67.1484 113.864H65.9043V118H64.1816V108.047H65.9043V112.524H67.1279C67.1553 111.608 67.3444 110.799 67.6953 110.098C68.0462 109.391 68.5293 108.851 69.1445 108.478C69.7643 108.099 70.4684 107.91 71.2568 107.91C72.068 107.91 72.7858 108.106 73.4102 108.498C74.0391 108.885 74.5244 109.446 74.8662 110.18C75.208 110.909 75.3812 111.759 75.3857 112.729V113.283ZM73.6562 112.764C73.6562 111.661 73.4466 110.815 73.0273 110.228C72.6126 109.64 72.0225 109.346 71.2568 109.346C70.5094 109.346 69.9238 109.64 69.5 110.228C69.0807 110.811 68.8665 111.638 68.8574 112.709V113.283C68.8574 114.377 69.0693 115.222 69.4932 115.819C69.9215 116.416 70.514 116.715 71.2705 116.715C72.0361 116.715 72.624 116.423 73.0342 115.84C73.4489 115.257 73.6562 114.404 73.6562 113.283V112.764Z" fill="#E93E3E"/>
<path d="M27.9883 66.7607C27.9883 66.3141 27.8197 65.9587 27.4824 65.6943C27.1452 65.43 26.6872 65.2979 26.1084 65.2979C25.6117 65.2979 25.1969 65.43 24.8643 65.6943C24.5316 65.9541 24.3652 66.2913 24.3652 66.7061H22.6426C22.6426 66.1637 22.793 65.6807 23.0938 65.2568C23.3945 64.833 23.8115 64.5049 24.3447 64.2725C24.8779 64.0355 25.4658 63.917 26.1084 63.917C27.2477 63.917 28.1318 64.1654 28.7607 64.6621C29.3942 65.1589 29.7109 65.8538 29.7109 66.7471C29.7109 67.1982 29.5742 67.613 29.3008 67.9912C29.0273 68.3695 28.6445 68.668 28.1523 68.8867C28.7083 69.0781 29.1322 69.3698 29.4238 69.7617C29.7201 70.1491 29.8682 70.6322 29.8682 71.2109C29.8682 72.1042 29.5264 72.8151 28.8428 73.3438C28.1592 73.8678 27.2477 74.1299 26.1084 74.1299C25.4066 74.1299 24.7708 74.0046 24.2012 73.7539C23.6361 73.5033 23.21 73.1615 22.9229 72.7285C22.6403 72.2956 22.499 71.7988 22.499 71.2383H24.2217C24.2217 71.6667 24.3994 72.029 24.7549 72.3252C25.1104 72.6169 25.5615 72.7627 26.1084 72.7627C26.7191 72.7627 27.209 72.6191 27.5781 72.332C27.9518 72.0449 28.1387 71.6712 28.1387 71.2109C28.1387 70.6504 27.9746 70.2448 27.6465 69.9941C27.3229 69.7389 26.8467 69.6113 26.2178 69.6113H25.0488V68.2441H26.1562C27.3776 68.2441 27.9883 67.7497 27.9883 66.7607Z" fill="#373745"/>
<path d="M111.18 74V64.0469H114.591C115.716 64.0469 116.573 64.2725 117.161 64.7236C117.749 65.1748 118.043 65.847 118.043 66.7402C118.043 67.196 117.92 67.6061 117.674 67.9707C117.428 68.3353 117.068 68.6178 116.594 68.8184C117.132 68.9642 117.546 69.2399 117.838 69.6455C118.134 70.0465 118.282 70.5296 118.282 71.0947C118.282 72.029 117.981 72.7467 117.38 73.248C116.783 73.7493 115.926 74 114.81 74H111.18ZM112.909 69.5088V72.6191H114.83C115.372 72.6191 115.796 72.4847 116.102 72.2158C116.407 71.9469 116.56 71.5732 116.56 71.0947C116.56 70.0602 116.031 69.5316 114.974 69.5088H112.909ZM112.909 68.2373H114.604C115.142 68.2373 115.562 68.1165 115.862 67.875C116.168 67.6289 116.32 67.2826 116.32 66.8359C116.32 66.3438 116.179 65.9883 115.896 65.7695C115.618 65.5508 115.183 65.4414 114.591 65.4414H112.909V68.2373Z" fill="#373745"/>
</svg>
