<svg width="32" height="32" viewBox="0 0 32 32" fill="none" xmlns="http://www.w3.org/2000/svg">
<rect x="1" y="1" width="30" height="30" rx="4" fill="#CDF59D"/>
<path d="M13.752 19.17H9.09205V18.52L11.552 15.75C11.8343 15.4422 12.0855 15.1072 12.302 14.75C12.4376 14.505 12.5098 14.23 12.512 13.95C12.5186 13.7818 12.492 13.614 12.4337 13.4562C12.3753 13.2983 12.2864 13.1535 12.172 13.03C12.0505 12.9253 11.9089 12.8465 11.7559 12.7983C11.6029 12.7502 11.4416 12.7337 11.282 12.75C10.9119 12.7415 10.5531 12.8778 10.282 13.13C10.1509 13.2743 10.0498 13.4431 9.98457 13.6268C9.91933 13.8105 9.89128 14.0054 9.90205 14.2H9.00205C8.989 13.9055 9.03839 13.6116 9.14697 13.3376C9.25554 13.0636 9.42086 12.8156 9.63205 12.61C10.0976 12.1939 10.7085 11.9783 11.332 12.01C11.8996 11.9762 12.4583 12.1625 12.892 12.53C13.0715 12.7022 13.2117 12.911 13.3032 13.1422C13.3947 13.3734 13.4352 13.6217 13.422 13.87C13.2879 14.8365 12.8126 15.7232 12.082 16.37L10.182 18.44H13.752V19.17Z" fill="#373749"/>
<path d="M16.0221 15.18H16.7021C17.0657 15.1926 17.4214 15.0717 17.7021 14.84C17.8253 14.7301 17.9225 14.5941 17.9865 14.4418C18.0505 14.2896 18.0797 14.125 18.0721 13.96C18.0906 13.7931 18.0706 13.6242 18.0137 13.4661C17.9568 13.3081 17.8645 13.1653 17.7438 13.0484C17.6232 12.9316 17.4774 12.844 17.3176 12.7923C17.1578 12.7406 16.9883 12.7261 16.8221 12.75C16.4806 12.7324 16.1461 12.8511 15.8921 13.08C15.7738 13.195 15.6814 13.3338 15.6211 13.4873C15.5607 13.6407 15.5338 13.8053 15.5421 13.97H14.6321C14.6281 13.7043 14.6814 13.4407 14.7883 13.1974C14.8953 12.9541 15.0535 12.7367 15.2521 12.56C15.6864 12.1837 16.2478 11.9871 16.8221 12.01C17.399 11.9573 17.9736 12.1333 18.4221 12.5C18.617 12.6919 18.7687 12.9232 18.867 13.1784C18.9653 13.4337 19.008 13.707 18.9921 13.98C18.9873 14.3038 18.8825 14.6181 18.6921 14.88C18.4899 15.1715 18.204 15.3947 17.8721 15.52C18.2324 15.6272 18.5505 15.8439 18.7821 16.14C18.9892 16.4325 19.1009 16.7817 19.1021 17.14C19.1226 17.4429 19.0717 17.7463 18.9536 18.0259C18.8355 18.3056 18.6535 18.5536 18.4221 18.75C17.9718 19.134 17.3933 19.334 16.8021 19.31C16.2185 19.3233 15.65 19.1243 15.2021 18.75C14.9958 18.5748 14.8319 18.3551 14.7228 18.1074C14.6137 17.8597 14.5621 17.5905 14.5721 17.32H15.4821C15.4749 17.4879 15.5042 17.6553 15.5681 17.8107C15.632 17.9661 15.7289 18.1058 15.8521 18.22C16.1298 18.456 16.4885 18.5744 16.8521 18.55C17.033 18.5629 17.2147 18.5395 17.3864 18.4811C17.5582 18.4227 17.7165 18.3305 17.8521 18.21C17.975 18.0761 18.0688 17.918 18.1273 17.7458C18.1859 17.5736 18.2079 17.3912 18.1921 17.21C18.2128 17.0251 18.1891 16.838 18.1231 16.664C18.057 16.4901 17.9504 16.3345 17.8121 16.21C17.502 15.9682 17.1146 15.8473 16.7221 15.87H16.0221V15.18Z" fill="#373749"/>
<path d="M23.2921 19.17H22.4221V13.17L20.6021 13.84V13L23.1921 12H23.3321L23.2921 19.17Z" fill="#373749"/>
<rect x="1" y="1" width="30" height="30" rx="4" stroke="white" stroke-miterlimit="10"/>
</svg>
