<svg xmlns="http://www.w3.org/2000/svg" viewBox="0 0 41 21"><defs><style>.cls-1{fill:#cdf59d;stroke:#fff;stroke-miterlimit:10;}.cls-2{fill:#373749;}</style></defs><g id="Layer_2" data-name="Layer 2"><g id="Map"><rect class="cls-1" x="0.5" y="0.5" width="40" height="20"/><path class="cls-2" d="M17.33,14.42H12.67v-.65L15.13,11a6.35,6.35,0,0,0,.75-1,1.68,1.68,0,0,0,.21-.8,1.28,1.28,0,0,0-.34-.92A1.18,1.18,0,0,0,14.86,8a1.42,1.42,0,0,0-1,.38,1.47,1.47,0,0,0-.38,1.07h-.9a2.09,2.09,0,0,1,.63-1.59,2.37,2.37,0,0,1,1.7-.6,2.21,2.21,0,0,1,1.56.52A1.73,1.73,0,0,1,17,9.12a4.09,4.09,0,0,1-1.34,2.5l-1.9,2.07h3.57Z"/><path class="cls-2" d="M19.6,10.43h.68a1.49,1.49,0,0,0,1-.34,1.11,1.11,0,0,0,.37-.88A1.1,1.1,0,0,0,20.4,8a1.29,1.29,0,0,0-.93.33,1.16,1.16,0,0,0-.35.89h-.91a1.85,1.85,0,0,1,.62-1.41,2.26,2.26,0,0,1,1.57-.55A2.21,2.21,0,0,1,22,7.75a1.92,1.92,0,0,1,.57,1.48,1.57,1.57,0,0,1-.3.9,1.75,1.75,0,0,1-.82.64,1.81,1.81,0,0,1,.91.62,1.74,1.74,0,0,1,.32,1A1.94,1.94,0,0,1,22,14a2.35,2.35,0,0,1-1.62.56A2.41,2.41,0,0,1,18.78,14a1.79,1.79,0,0,1-.63-1.43h.91a1.16,1.16,0,0,0,.37.9,1.4,1.4,0,0,0,1,.33,1.36,1.36,0,0,0,1-.34,1.31,1.31,0,0,0,.34-1,1.17,1.17,0,0,0-.38-1,1.62,1.62,0,0,0-1.09-.34H19.6Z"/><path class="cls-2" d="M26.87,14.42H26v-6l-1.82.67V8.25l2.59-1h.14Z"/></g></g></svg>