<svg xmlns="http://www.w3.org/2000/svg" xmlns:xlink="http://www.w3.org/1999/xlink" viewBox="0 0 30 34"><defs><style>.cls-1{fill:#3172f4;}.cls-2{fill:#fff;}</style><symbol id="Детский_сад" data-name="Детский сад" viewBox="0 0 30 34"><path class="cls-1" d="M30,15A15,15,0,1,0,8.22,28.36a19.67,19.67,0,0,1,6.18,4.92L15,34l.6-.72a18.1,18.1,0,0,1,5.93-4.79A15,15,0,0,0,30,15Z"/><path class="cls-2" d="M23,19.67a.87.87,0,0,1-.41.37,16.77,16.77,0,0,1-5.39,1.69,17,17,0,0,1-3.7.08A16.53,16.53,0,0,1,7.29,20a.47.47,0,0,1-.23-.65.48.48,0,0,1,.66-.18l1,.51a12.1,12.1,0,0,0,1.46-6.6,2,2,0,0,1-.88.36,1.56,1.56,0,0,1-1.7-1.2,1.67,1.67,0,0,1,.42-1.67c.24-.26.51-.5.75-.76a.37.37,0,0,0,.1-.24c0-.38,0-.76,0-1.14a.47.47,0,0,1,.54-.52A4,4,0,0,1,12.4,9a4.11,4.11,0,0,1,1.15,2.55c.06.73,0,1.47,0,2.2,0,.44,0,.88,0,1.31a1.27,1.27,0,0,0,.79,1c.09,0,.13.08.12.18v.89c-.25.05-.5.08-.74.14a4.09,4.09,0,0,0-2.35,1.56c-.33.43-.62.9-.95,1.37a15.59,15.59,0,0,0,8.9,0,5.23,5.23,0,0,0-1.51-2.11,4.42,4.42,0,0,0-2.4-1v-1a1.44,1.44,0,0,0,.93-1.45c0-.34,0-.68,0-1v-.24l.06,0c.7,0,1.4,0,2.09,0a4.21,4.21,0,0,1,2.43.9,3.08,3.08,0,0,1,1.12,2.86c0,.16-.05.31-.08.47a.48.48,0,0,1-.57.39.47.47,0,0,1-.35-.58,2.47,2.47,0,0,0-.43-2.14,6.4,6.4,0,0,0-.6-.56l0,0a2.52,2.52,0,0,1,.12.39c.05.38.09.76.14,1.14A13.12,13.12,0,0,0,21,19.24c.05.14.09.29.15.44.35-.16.69-.32,1-.49s.59-.15.81.23Z"/><path class="cls-2" d="M14.53,13.37l.93.13a.56.56,0,0,1,0,.07v1.27a.47.47,0,1,1-.94,0Z"/></symbol></defs><g id="Layer_2" data-name="Layer 2"><g id="Map"><use width="30" height="34" xlink:href="#Детский_сад"/></g></g></svg>