<svg xmlns="http://www.w3.org/2000/svg" viewBox="0 0 41 21"><defs><style>.cls-1{fill:#fdf2b5;stroke:#fff;stroke-miterlimit:10;}.cls-2{fill:#373749;}</style></defs><g id="Layer_2" data-name="Layer 2"><g id="Map"><rect class="cls-1" x="0.5" y="0.5" width="40" height="20"/><path class="cls-2" d="M17.33,14.42H12.67v-.65L15.13,11a6.35,6.35,0,0,0,.75-1,1.68,1.68,0,0,0,.21-.8,1.28,1.28,0,0,0-.34-.92A1.18,1.18,0,0,0,14.86,8a1.42,1.42,0,0,0-1,.38,1.47,1.47,0,0,0-.38,1.07h-.9a2.09,2.09,0,0,1,.63-1.59,2.37,2.37,0,0,1,1.7-.6,2.21,2.21,0,0,1,1.56.52A1.73,1.73,0,0,1,17,9.12a4.09,4.09,0,0,1-1.34,2.5l-1.9,2.07h3.57Z"/><path class="cls-2" d="M22.74,11.39a4.16,4.16,0,0,1-.54,2.36,1.94,1.94,0,0,1-1.7.77,1.94,1.94,0,0,1-1.68-.75,4.05,4.05,0,0,1-.57-2.26v-1.2A3.94,3.94,0,0,1,18.8,8a1.92,1.92,0,0,1,1.69-.76A2,2,0,0,1,22.18,8a3.84,3.84,0,0,1,.56,2.27Zm-.9-1.24a3.37,3.37,0,0,0-.32-1.67,1.12,1.12,0,0,0-1-.52,1.1,1.1,0,0,0-1,.52,3.19,3.19,0,0,0-.32,1.61v1.44a3.37,3.37,0,0,0,.33,1.7,1.09,1.09,0,0,0,1,.55,1.11,1.11,0,0,0,1-.51,3.35,3.35,0,0,0,.34-1.64Z"/><path class="cls-2" d="M25.21,10.43h.68a1.52,1.52,0,0,0,1-.34,1.13,1.13,0,0,0,.36-.88A1.1,1.1,0,0,0,26,8a1.33,1.33,0,0,0-.94.33,1.2,1.2,0,0,0-.35.89h-.9a1.85,1.85,0,0,1,.62-1.41A2.25,2.25,0,0,1,26,7.22a2.18,2.18,0,0,1,1.57.53,1.89,1.89,0,0,1,.58,1.48,1.57,1.57,0,0,1-.3.9,1.86,1.86,0,0,1-.82.64,1.74,1.74,0,0,1,.9.62,1.68,1.68,0,0,1,.32,1A1.93,1.93,0,0,1,27.65,14a2.37,2.37,0,0,1-1.63.56A2.43,2.43,0,0,1,24.39,14a1.82,1.82,0,0,1-.62-1.43h.9a1.2,1.2,0,0,0,.37.9,1.4,1.4,0,0,0,1,.33,1.35,1.35,0,0,0,1-.34,1.32,1.32,0,0,0,.35-1,1.21,1.21,0,0,0-.38-1,1.63,1.63,0,0,0-1.1-.34h-.68Z"/></g></g></svg>