<svg width="32" height="32" viewBox="0 0 32 32" fill="none" xmlns="http://www.w3.org/2000/svg">
<rect x="1" y="1" width="30" height="30" rx="4" fill="#FDF2B5"/>
<path d="M12.752 19.2046H8.09205V18.5546L10.552 15.7846C10.8343 15.4767 11.0855 15.1417 11.302 14.7846C11.4376 14.5396 11.5098 14.2646 11.512 13.9846C11.5186 13.8164 11.492 13.6486 11.4337 13.4907C11.3753 13.3328 11.2864 13.188 11.172 13.0646C11.0505 12.9598 10.9089 12.881 10.7559 12.8329C10.6029 12.7847 10.4416 12.7683 10.282 12.7846C9.91192 12.776 9.5531 12.9124 9.28205 13.1646C9.15093 13.3088 9.0498 13.4777 8.98457 13.6614C8.91933 13.8451 8.89128 14.0399 8.90205 14.2346H8.00205C7.989 13.9401 8.03839 13.6462 8.14697 13.3722C8.25554 13.0981 8.42086 12.8502 8.63205 12.6446C9.09756 12.2284 9.70847 12.0128 10.332 12.0446C10.8996 12.0108 11.4583 12.197 11.892 12.5646C12.0715 12.7367 12.2117 12.9455 12.3032 13.1767C12.3947 13.408 12.4352 13.6562 12.422 13.9046C12.2879 14.8711 11.8126 15.7577 11.082 16.4046L9.18205 18.4746H12.752V19.2046Z" fill="#373749"/>
<path d="M18.1621 16.1746C18.22 16.9974 18.032 17.8189 17.6221 18.5346C17.4263 18.7955 17.1679 19.0029 16.8707 19.1375C16.5736 19.272 16.2473 19.3295 15.9221 19.3046C15.6018 19.3284 15.2807 19.2723 14.9875 19.1414C14.6943 19.0105 14.4381 18.8089 14.2421 18.5546C13.8347 17.8734 13.6365 17.0875 13.6721 16.2946V15.0946C13.6135 14.2864 13.8055 13.4797 14.2221 12.7846C14.4167 12.5256 14.6738 12.3201 14.9693 12.1872C15.2648 12.0543 15.5891 11.9984 15.9121 12.0246C16.2342 12.0056 16.5561 12.0647 16.8504 12.1971C17.1447 12.3294 17.4026 12.531 17.6021 12.7846C18.0201 13.4647 18.2159 14.2581 18.1621 15.0546V16.1746ZM17.2621 14.9346C17.2999 14.3597 17.1897 13.7848 16.9421 13.2646C16.8362 13.0973 16.6879 12.961 16.5122 12.8696C16.3366 12.7783 16.1398 12.7351 15.9421 12.7446C15.744 12.733 15.5464 12.7752 15.3704 12.8668C15.1943 12.9583 15.0463 13.0958 14.9421 13.2646C14.6968 13.7642 14.5865 14.3192 14.6221 14.8746V16.3146C14.5821 16.9003 14.6959 17.4864 14.9521 18.0146C15.0516 18.1897 15.1978 18.3338 15.3743 18.4309C15.5508 18.528 15.7508 18.5743 15.9521 18.5646C16.149 18.5761 16.3455 18.535 16.5213 18.4453C16.697 18.3557 16.8457 18.2208 16.9521 18.0546C17.2024 17.5455 17.3194 16.9812 17.2921 16.4146L17.2621 14.9346Z" fill="#373749"/>
<path d="M20.6321 15.2145H21.3121C21.6753 15.2244 22.0301 15.1037 22.3121 14.8745C22.4324 14.7628 22.5269 14.6262 22.5891 14.4742C22.6513 14.3222 22.6796 14.1585 22.6721 13.9945C22.6906 13.8276 22.6706 13.6586 22.6137 13.5006C22.5568 13.3426 22.4645 13.1997 22.3438 13.0829C22.2232 12.9661 22.0773 12.8785 21.9176 12.8268C21.7578 12.775 21.5883 12.7606 21.4221 12.7845C21.0778 12.7686 20.7408 12.8869 20.4821 13.1145C20.3658 13.2309 20.2748 13.37 20.2146 13.5231C20.1544 13.6762 20.1263 13.8401 20.1321 14.0045H19.2321C19.228 13.7387 19.2813 13.4752 19.3883 13.2319C19.4953 12.9886 19.6535 12.7712 19.8521 12.5945C20.2798 12.2028 20.8422 11.9915 21.4221 12.0045C21.9947 11.9676 22.5589 12.1581 22.9921 12.5345C23.1904 12.7243 23.345 12.955 23.4452 13.2106C23.5454 13.4662 23.5887 13.7405 23.5721 14.0145C23.5673 14.3383 23.4625 14.6526 23.2721 14.9145C23.0651 15.2015 22.7807 15.4235 22.4521 15.5545C22.8109 15.6592 23.1264 15.8765 23.3521 16.1745C23.5628 16.4651 23.675 16.8155 23.6721 17.1745C23.7032 17.471 23.6652 17.7706 23.5611 18.05C23.457 18.3293 23.2896 18.5807 23.0721 18.7845C22.6183 19.1691 22.0364 19.369 21.4421 19.3445C20.8485 19.3633 20.2687 19.1641 19.8121 18.7845C19.6093 18.6069 19.4485 18.3865 19.3412 18.1392C19.234 17.8919 19.1831 17.6239 19.1921 17.3545H20.0921C20.0875 17.522 20.118 17.6887 20.1817 17.8437C20.2455 17.9987 20.341 18.1386 20.4621 18.2545C20.7397 18.4905 21.0985 18.6088 21.4621 18.5845C21.643 18.598 21.8249 18.5748 21.9967 18.5164C22.1685 18.4579 22.3268 18.3655 22.4621 18.2445C22.5863 18.111 22.6815 17.9533 22.7418 17.7812C22.802 17.6091 22.8259 17.4263 22.8121 17.2445C22.8296 17.0598 22.8045 16.8736 22.7386 16.7002C22.6727 16.5268 22.5678 16.3709 22.4321 16.2445C22.119 16.0011 21.7279 15.8803 21.3321 15.9045H20.6521L20.6321 15.2145Z" fill="#373749"/>
<rect x="1" y="1" width="30" height="30" rx="4" stroke="white" stroke-miterlimit="10"/>
</svg>
