<svg width="30" height="34" viewBox="0 0 30 34" fill="none" xmlns="http://www.w3.org/2000/svg">
<g clip-path="url(#clip0)">
<path d="M30 15C30.0036 12.3314 29.2952 9.7101 27.9479 7.40657C26.6005 5.10303 24.6631 3.20064 22.3353 1.89563C20.0075 0.590626 17.3737 -0.0697491 14.7056 -0.0173737C12.0375 0.0350016 9.43166 0.798231 7.15689 2.19359C4.88213 3.58894 3.0208 5.5659 1.76491 7.92054C0.509016 10.2752 -0.0959655 12.9222 0.012367 15.5887C0.120699 18.2551 0.938424 20.8443 2.38119 23.0893C3.82396 25.3343 5.83953 27.1538 8.21999 28.36C10.5915 29.5652 12.6939 31.239 14.4 33.28L15 34L15.6 33.28C17.2142 31.2805 19.2357 29.6476 21.53 28.49C24.0661 27.2636 26.2056 25.3479 27.7035 22.9622C29.2015 20.5764 29.9974 17.817 30 15Z" fill="#3172F4"/>
<path d="M16.29 14.78H14.29L14.68 17.78H16.31V14.78H16.29ZM19.23 14.78H17.23V17.78H18.86L19.23 14.78ZM20.68 10.78L20.3 13.78H22.54L23 12C23.0226 11.8624 23.0162 11.7216 22.9812 11.5867C22.9462 11.4517 22.8834 11.3256 22.7967 11.2164C22.7101 11.1071 22.6016 11.0172 22.4782 10.9524C22.3547 10.8876 22.2191 10.8493 22.08 10.84L20.68 10.78ZM16.29 10.78H13.76L14.15 13.85H16.29V10.78ZM20.18 14.78L19.79 17.78H20.69C20.9549 17.7808 21.2123 17.6925 21.4209 17.5292C21.6295 17.366 21.7771 17.1373 21.84 16.88L22.32 14.76L20.18 14.78ZM13.71 17.78L13.33 14.78H11L11.56 16.86C11.1832 16.8757 10.8262 17.0328 10.56 17.3C10.4218 17.4369 10.3132 17.6007 10.241 17.7814C10.1687 17.962 10.1344 18.1555 10.14 18.35C10.1478 18.7329 10.3048 19.0977 10.5774 19.3666C10.8501 19.6356 11.217 19.7875 11.6 19.79H12.29C12.1838 20.0124 12.1292 20.2558 12.13 20.5022C12.1309 20.7486 12.1873 20.9917 12.295 21.2133C12.4027 21.435 12.5589 21.6295 12.7521 21.7824C12.9454 21.9353 13.1706 22.0428 13.411 22.0967C13.6514 22.1507 13.9009 22.1497 14.141 22.094C14.381 22.0383 14.6054 21.9291 14.7974 21.7748C14.9895 21.6204 15.1443 21.4247 15.2504 21.2023C15.3564 20.9799 15.411 20.7364 15.41 20.49C15.4141 20.2471 15.3592 20.0069 15.25 19.79H18.25C18.1479 20.0121 18.0967 20.2543 18.1002 20.4988C18.1038 20.7433 18.162 20.9839 18.2705 21.203C18.379 21.4221 18.5352 21.6142 18.7275 21.7651C18.9199 21.9161 19.1435 22.0221 19.3821 22.0755C19.6208 22.1289 19.8683 22.1282 20.1066 22.0736C20.3449 22.0189 20.568 21.9117 20.7596 21.7597C20.9511 21.6077 21.1062 21.4148 21.2135 21.1951C21.3209 20.9754 21.3778 20.7345 21.38 20.49C21.3807 20.24 21.3225 19.9933 21.21 19.77C21.3024 19.7358 21.3823 19.6746 21.4394 19.5944C21.4965 19.5141 21.5281 19.4185 21.53 19.32C21.53 19.1953 21.4805 19.0758 21.3923 18.9876C21.3042 18.8995 21.1847 18.85 21.06 18.85H11.62C11.4932 18.8324 11.3771 18.7696 11.293 18.6731C11.2089 18.5766 11.1626 18.453 11.1626 18.325C11.1626 18.197 11.2089 18.0733 11.293 17.9768C11.3771 17.8803 11.4932 17.8175 11.62 17.8L13.71 17.78ZM17.22 10.78V13.83H19.35L19.74 10.83L17.22 10.78ZM9.44 8.93998L9.67 9.81998H10.67L10.37 8.69999C10.3061 8.4595 10.1647 8.24681 9.96761 8.09493C9.77053 7.94305 9.52882 7.86046 9.28 7.85999H7.47C7.34535 7.85999 7.2258 7.9095 7.13766 7.99764C7.04952 8.08579 7 8.20533 7 8.32999C7 8.45464 7.04952 8.57418 7.13766 8.66233C7.2258 8.75047 7.34535 8.79999 7.47 8.79999H9.25C9.29242 8.80015 9.3337 8.81381 9.36785 8.83897C9.40201 8.86414 9.42727 8.89951 9.44 8.93998ZM12.81 10.77H9.93L10.76 13.84H13.21L12.81 10.77Z" fill="white"/>
</g>
<defs>
<clipPath id="clip0">
<rect width="30" height="34" fill="white"/>
</clipPath>
</defs>
</svg>
