<svg xmlns="http://www.w3.org/2000/svg" xmlns:xlink="http://www.w3.org/1999/xlink" viewBox="0 0 30 34"><defs><style>.cls-1{fill:#3172f4;}.cls-2{fill:#fff;}</style><symbol id="Магазин" data-name="Магазин" viewBox="0 0 30 34"><path class="cls-1" d="M30,15A15,15,0,1,0,8.22,28.36a19.67,19.67,0,0,1,6.18,4.92L15,34l.6-.72a18.1,18.1,0,0,1,5.93-4.79A15,15,0,0,0,30,15Z"/><path class="cls-2" d="M16.29,14.78h-2l.39,3h1.63v-3Zm2.94,0h-2v3h1.63Zm1.45-4-.38,3h2.24L23,12a1,1,0,0,0-.92-1.16Zm-4.39,0H13.76l.39,3.07h2.14Zm3.89,4-.39,3h.9a1.18,1.18,0,0,0,1.15-.9l.48-2.12Zm-6.47,3-.38-3H11l.56,2.08a1.5,1.5,0,0,0-1,.44,1.42,1.42,0,0,0-.42,1.05,1.47,1.47,0,0,0,1.46,1.44h.69a1.64,1.64,0,1,0,3.12.7,1.5,1.5,0,0,0-.16-.7h3a1.64,1.64,0,1,0,3.13.7,1.59,1.59,0,0,0-.17-.72.49.49,0,0,0,.32-.45.47.47,0,0,0-.47-.47H11.62a.53.53,0,0,1,0-1.05Zm3.51-7v3.05h2.13l.39-3ZM9.44,8.94l.23.88h1l-.3-1.12a1.13,1.13,0,0,0-1.09-.84H7.47a.47.47,0,1,0,0,.94H9.25A.2.2,0,0,1,9.44,8.94Zm3.37,1.83H9.93l.83,3.07h2.45Z"/></symbol></defs><g id="Layer_2" data-name="Layer 2"><g id="Map"><use width="30" height="34" xlink:href="#Магазин"/></g></g></svg>