<svg xmlns="http://www.w3.org/2000/svg" xmlns:xlink="http://www.w3.org/1999/xlink" viewBox="0 0 30 34"><defs><style>.cls-1{fill:#94e05a;}.cls-2{fill:#fff;}</style><symbol id="Парк" data-name="Парк" viewBox="0 0 30 34"><path class="cls-1" d="M30,15A15,15,0,1,0,8.22,28.36a19.67,19.67,0,0,1,6.18,4.92L15,34l.6-.72a18.1,18.1,0,0,1,5.93-4.79A15,15,0,0,0,30,15Z"/><path class="cls-2" d="M7.06,23.33l-.07,0a.49.49,0,0,1-.28-.55.48.48,0,0,1,.5-.38h1.9V15.85h1v6.49h1.49v-2h-.43a.49.49,0,1,1,0-1h.44v-3a.82.82,0,0,1,.89-.89h5.06a.82.82,0,0,1,.89.89v3h.44a.49.49,0,1,1,0,1h-.42v2h1.48V15.85h1v6.51h1.86a.5.5,0,0,1,.55.38.51.51,0,0,1-.33.57s0,0,0,0Zm5.51-2.95v2h4.86v-2Zm0-2v1h4.86v-1Zm10.76-6.87,0-.1a3.05,3.05,0,0,0-.71-1.61.26.26,0,0,1-.05-.21,2.53,2.53,0,0,0,0-1.16,2.22,2.22,0,0,0-2.7-1.74,2.29,2.29,0,0,0-1.63,2.83.33.33,0,0,1-.07.33,3.08,3.08,0,0,0,.91,4.68,2.32,2.32,0,0,0,.82.26c0-.52,0-1,0-1.53a.6.6,0,0,0-.16-.44c-.17-.19-.33-.4-.49-.6a.49.49,0,1,1,.76-.62c.12.16.25.31.37.46l0,0c.14-.15.27-.31.4-.46a.51.51,0,0,1,.72-.11.49.49,0,0,1,0,.74c-.2.24-.4.47-.59.71a.39.39,0,0,0-.09.23c0,.51,0,1,0,1.51a.66.66,0,0,0,0,.14l.1,0a2.89,2.89,0,0,0,2.2-2.09,5.8,5.8,0,0,0,.13-.6Zm-12.06,2.8a3.08,3.08,0,0,0,.52-4.49.23.23,0,0,1,0-.25,2.31,2.31,0,0,0,.07-1A2.24,2.24,0,0,0,9.1,6.72,2.31,2.31,0,0,0,7.45,9.59a.26.26,0,0,1-.06.29,3.07,3.07,0,0,0,.89,4.68,2.19,2.19,0,0,0,.83.27V13.17s0,0,0-.06A.44.44,0,0,0,9,13c-.18-.24-.37-.46-.55-.69a.49.49,0,1,1,.76-.62l.37.46.44-.52a.5.5,0,0,1,.7-.08.49.49,0,0,1,.05.71,5.15,5.15,0,0,1-.43.5.93.93,0,0,0-.29.81c0,.43,0,.86,0,1.3A2.55,2.55,0,0,0,11.27,14.35Z"/></symbol></defs><g id="Layer_2" data-name="Layer 2"><g id="Map"><use width="30" height="34" xlink:href="#Парк"/></g></g></svg>