<svg width="30" height="34" viewBox="0 0 30 34" fill="none" xmlns="http://www.w3.org/2000/svg">
<g clip-path="url(#clip0)">
<path d="M30 15C30.0036 12.3314 29.2952 9.7101 27.9479 7.40657C26.6005 5.10303 24.6631 3.20064 22.3353 1.89563C20.0075 0.590626 17.3737 -0.0697491 14.7056 -0.0173737C12.0375 0.0350016 9.43166 0.798231 7.15689 2.19359C4.88213 3.58894 3.0208 5.5659 1.76491 7.92054C0.509016 10.2752 -0.0959655 12.9222 0.012367 15.5887C0.120699 18.2551 0.938424 20.8443 2.38119 23.0893C3.82396 25.3343 5.83953 27.1538 8.21999 28.36C10.5915 29.5652 12.6939 31.239 14.4 33.28L15 34L15.6 33.28C17.2142 31.2805 19.2357 29.6476 21.53 28.49C24.0661 27.2636 26.2056 25.3479 27.7035 22.9622C29.2015 20.5764 29.9974 17.817 30 15Z" fill="#FF4935"/>
<path d="M20.3838 7.30952C20.8986 7.52293 21.3662 7.83572 21.76 8.23C22.1535 8.62059 22.4662 9.08488 22.6801 9.59635C22.8941 10.1078 23.0052 10.6564 23.0071 11.2109C23.0089 11.7653 22.9015 12.3146 22.691 12.8275C22.4804 13.3404 22.1709 13.8068 21.78 14.2L21.11 14.94C20.3181 14.5969 19.4458 14.4824 18.5921 14.6097C17.7384 14.7369 16.9375 15.1008 16.28 15.66L12.28 11.71L15.76 8.23C16.1538 7.83572 16.6215 7.52293 17.1362 7.30952C17.651 7.09611 18.2028 6.98627 18.76 6.98627C19.3173 6.98627 19.8691 7.09611 20.3838 7.30952Z" fill="white"/>
<path d="M11.6 12.38L15.6 16.33C14.9094 17.1484 14.521 18.1793 14.5 19.25C14.5023 19.8826 14.6316 20.5083 14.88 21.09L14.19 21.78C13.3798 22.5 12.3251 22.8833 11.2417 22.8514C10.1583 22.8195 9.12799 22.3749 8.36156 21.6084C7.59513 20.842 7.1505 19.8117 7.1186 18.7283C7.08671 17.6449 7.46997 16.5902 8.18999 15.78L11.6 12.38Z" fill="white"/>
<path d="M15.49 19.25C15.4808 20.1703 15.8114 21.0618 16.4184 21.7536C17.0254 22.4455 17.8663 22.8893 18.78 23V15.6C17.8833 15.7085 17.0562 16.1379 16.4514 16.8088C15.8467 17.4798 15.5052 18.3469 15.49 19.25Z" fill="white"/>
<path d="M19.71 23V15.6C20.6102 15.7149 21.4377 16.154 22.0374 16.835C22.6371 17.5161 22.9679 18.3925 22.9679 19.3C22.9679 20.2075 22.6371 21.0838 22.0374 21.7649C21.4377 22.446 20.6102 22.8851 19.71 23Z" fill="white"/>
</g>
<defs>
<clipPath id="clip0">
<rect width="30" height="34" fill="white"/>
</clipPath>
</defs>
</svg>
