<svg xmlns="http://www.w3.org/2000/svg" xmlns:xlink="http://www.w3.org/1999/xlink" viewBox="0 0 30 34"><defs><style>.cls-1{fill:#ff4935;}.cls-2{fill:#fff;}</style><symbol id="Аптека" data-name="Аптека" viewBox="0 0 30 34"><path class="cls-1" d="M30,15A15,15,0,1,0,8.22,28.36a19.67,19.67,0,0,1,6.18,4.92L15,34l.6-.72a18.1,18.1,0,0,1,5.93-4.79A15,15,0,0,0,30,15Z"/><path class="cls-2" d="M21.76,8.23a4.24,4.24,0,0,0-6,0l-3.48,3.48,4,3.95a4.62,4.62,0,0,1,4.83-.72l.67-.74A4.22,4.22,0,0,0,21.76,8.23Z"/><path class="cls-2" d="M15.6,16.33l-4-3.95-3.41,3.4a4.25,4.25,0,0,0,6,6l.69-.69a4.73,4.73,0,0,1-.38-1.84A4.67,4.67,0,0,1,15.6,16.33Z"/><path class="cls-2" d="M15.49,19.25A3.74,3.74,0,0,0,18.78,23v-7.4A3.74,3.74,0,0,0,15.49,19.25Z"/><path class="cls-2" d="M19.71,15.55V23a3.73,3.73,0,0,0,0-7.4Z"/></symbol></defs><g id="Layer_2" data-name="Layer 2"><g id="Map"><use width="30" height="34" xlink:href="#Аптека"/></g></g></svg>