<svg xmlns="http://www.w3.org/2000/svg" xmlns:xlink="http://www.w3.org/1999/xlink" viewBox="0 0 30 34"><defs><style>.cls-1{fill:#3172f4;}.cls-2{fill:#fff;}</style><symbol id="Детская_площадка" data-name="Детская площадка" viewBox="0 0 30 34"><path class="cls-1" d="M30,15A15,15,0,1,0,8.22,28.36a19.67,19.67,0,0,1,6.18,4.92L15,34l.6-.72a18.1,18.1,0,0,1,5.93-4.79A15,15,0,0,0,30,15Z"/><path class="cls-2" d="M22.53,20.19h-.94c-2.09,0-2.55-5.26-6.15-6.36V17.1c1.64,1.66,2.47,5.9,6.15,5.9h.94a.47.47,0,0,0,.47-.47V20.66A.47.47,0,0,0,22.53,20.19ZM11.69,13.62a.94.94,0,1,0-1.88,0v2.8h1.88ZM7,22.53a.47.47,0,0,0,.94,0V16.44h.93V13.65a1.9,1.9,0,0,1,1.85-1.9,1.88,1.88,0,0,1,1.91,1.87v2.82h.93v6.09a.47.47,0,0,0,.94,0V10.81H7ZM11.06,7.12a.46.46,0,0,0-.62,0L7.29,9.87h6.92Zm.63,10.25H9.81v-.93H8.87v6.09a.48.48,0,0,0,.47.47.47.47,0,0,0,.47-.47v-.47h1.88v.47a.47.47,0,0,0,.47.47.48.48,0,0,0,.47-.47V16.44h-.94Zm0,.94v.94H9.81v-.94ZM9.81,21.12v-.93h1.88v.93Z"/></symbol></defs><g id="Layer_2" data-name="Layer 2"><g id="Map"><use width="30" height="34" xlink:href="#Детская_площадка"/></g></g></svg>