<svg width="30" height="34" viewBox="0 0 30 34" fill="none" xmlns="http://www.w3.org/2000/svg">
<g clip-path="url(#clip0)">
<path d="M30 15C30.0036 12.3314 29.2952 9.7101 27.9479 7.40657C26.6005 5.10303 24.6631 3.20064 22.3353 1.89563C20.0075 0.590626 17.3737 -0.0697491 14.7056 -0.0173737C12.0375 0.0350016 9.43166 0.798231 7.15689 2.19359C4.88213 3.58894 3.0208 5.5659 1.76491 7.92054C0.509016 10.2752 -0.0959655 12.9222 0.012367 15.5887C0.120699 18.2551 0.938424 20.8443 2.38119 23.0893C3.82396 25.3343 5.83953 27.1538 8.21999 28.36C10.5915 29.5652 12.6939 31.239 14.4 33.28L15 34L15.6 33.28C17.2142 31.2805 19.2357 29.6476 21.53 28.49C24.0661 27.2636 26.2056 25.3479 27.7035 22.9622C29.2015 20.5764 29.9974 17.817 30 15Z" fill="#3172F4"/>
<path d="M22.53 20.19H21.59C19.5 20.19 19.04 14.93 15.44 13.83V17.1C17.08 18.76 17.91 23 21.59 23H22.53C22.6547 23 22.7742 22.9505 22.8623 22.8624C22.9505 22.7742 23 22.6547 23 22.53V20.66C23 20.5354 22.9505 20.4158 22.8623 20.3277C22.7742 20.2395 22.6547 20.19 22.53 20.19V20.19ZM11.69 13.62C11.69 13.3707 11.591 13.1316 11.4147 12.9553C11.2384 12.7791 10.9993 12.68 10.75 12.68C10.5007 12.68 10.2616 12.7791 10.0853 12.9553C9.90904 13.1316 9.81 13.3707 9.81 13.62V16.42H11.69V13.62ZM7 22.53C7 22.6547 7.04952 22.7742 7.13766 22.8624C7.2258 22.9505 7.34535 23 7.47 23C7.59465 23 7.7142 22.9505 7.80234 22.8624C7.89048 22.7742 7.94 22.6547 7.94 22.53V16.44H8.87V13.65C8.86983 13.1547 9.06313 12.6788 9.4087 12.3239C9.75428 11.969 10.2248 11.7631 10.72 11.75C10.9681 11.746 11.2145 11.7915 11.4448 11.8837C11.6752 11.9759 11.8849 12.113 12.0617 12.287C12.2386 12.4611 12.379 12.6686 12.4748 12.8974C12.5707 13.1263 12.62 13.3719 12.62 13.62V16.44H13.56V22.53C13.56 22.6547 13.6095 22.7742 13.6977 22.8624C13.7858 22.9505 13.9053 23 14.03 23C14.1547 23 14.2742 22.9505 14.3623 22.8624C14.4505 22.7742 14.5 22.6547 14.5 22.53V10.81H7V22.53ZM11.06 7.12002C10.9753 7.04273 10.8647 6.99988 10.75 6.99988C10.6353 6.99988 10.5247 7.04273 10.44 7.12002L7.29 9.87002H14.21L11.06 7.12002ZM11.69 17.37H9.81V16.44H8.87V22.53C8.87255 22.6539 8.92289 22.7719 9.01049 22.8595C9.09808 22.9471 9.21615 22.9975 9.34 23C9.40172 23 9.46284 22.9879 9.51986 22.9642C9.57688 22.9406 9.6287 22.906 9.67234 22.8624C9.71598 22.8187 9.7506 22.7669 9.77422 22.7099C9.79784 22.6529 9.81 22.5917 9.81 22.53V22.06H11.69V22.53C11.6802 22.5968 11.6849 22.6649 11.7037 22.7297C11.7226 22.7945 11.7552 22.8545 11.7993 22.9056C11.8434 22.9567 11.898 22.9977 11.9594 23.0258C12.0208 23.0539 12.0875 23.0684 12.155 23.0684C12.2225 23.0684 12.2892 23.0539 12.3506 23.0258C12.412 22.9977 12.4666 22.9567 12.5107 22.9056C12.5548 22.8545 12.5874 22.7945 12.6063 22.7297C12.6251 22.6649 12.6298 22.5968 12.62 22.53V16.44H11.69V17.37ZM11.69 18.31V19.25H9.81V18.31H11.69ZM9.81 21.12V20.19H11.69V21.12H9.81Z" fill="white"/>
</g>
<defs>
<clipPath id="clip0">
<rect width="30" height="34" fill="white"/>
</clipPath>
</defs>
</svg>
