<svg xmlns="http://www.w3.org/2000/svg" xmlns:xlink="http://www.w3.org/1999/xlink" viewBox="0 0 30 34"><defs><style>.cls-1{fill:#3172f4;}.cls-2{fill:#fff;}</style><symbol id="Спортивная_площака" data-name="Спортивная площака" viewBox="0 0 30 34"><path class="cls-1" d="M30,15A15,15,0,1,0,8.22,28.36a19.67,19.67,0,0,1,6.18,4.92L15,34l.6-.72a18.1,18.1,0,0,1,5.93-4.79A15,15,0,0,0,30,15Z"/><path class="cls-2" d="M14.53,12.7V9.84H7.47a.47.47,0,0,0-.47.47v2.35H9.34a.47.47,0,0,1,.47.47v3.75a.47.47,0,0,1-.47.46H7v2.35a.47.47,0,0,0,.47.47h7.06V17.3a2.35,2.35,0,0,1,0-4.6ZM7,13.59v2.82H8.87V13.59Zm8.47.08v2.66a1.41,1.41,0,0,0,0-2.66ZM13.59,15a1.43,1.43,0,0,0,.94,1.33V13.67A1.43,1.43,0,0,0,13.59,15Zm7.07-2.34H23V10.31a.47.47,0,0,0-.47-.47H15.47V12.7a2.35,2.35,0,0,1,0,4.6v2.86h7.06a.47.47,0,0,0,.47-.47V17.34H20.66a.47.47,0,0,1-.47-.46V13.13A.47.47,0,0,1,20.66,12.66Zm.46.93v2.82H23V13.59Z"/></symbol></defs><g id="Layer_2" data-name="Layer 2"><g id="Map"><use width="30" height="34" xlink:href="#Спортивная_площака"/></g></g></svg>