<svg width="30" height="34" viewBox="0 0 30 34" fill="none" xmlns="http://www.w3.org/2000/svg">
<g clip-path="url(#clip0)">
<path d="M30 15C30.0036 12.3314 29.2952 9.7101 27.9479 7.40657C26.6005 5.10303 24.6631 3.20064 22.3353 1.89563C20.0075 0.590626 17.3737 -0.0697491 14.7056 -0.0173737C12.0375 0.0350016 9.43166 0.798231 7.15689 2.19359C4.88213 3.58894 3.0208 5.5659 1.76491 7.92054C0.509016 10.2752 -0.0959655 12.9222 0.012367 15.5887C0.120699 18.2551 0.938424 20.8443 2.38119 23.0893C3.82396 25.3343 5.83953 27.1538 8.21999 28.36C10.5915 29.5652 12.6939 31.239 14.4 33.28L15 34L15.6 33.28C17.2142 31.2805 19.2357 29.6476 21.53 28.49C24.0661 27.2636 26.2056 25.3479 27.7035 22.9622C29.2015 20.5764 29.9974 17.817 30 15Z" fill="#3172F4"/>
<path d="M14.53 12.7V9.84003H7.47C7.34535 9.84003 7.2258 9.88954 7.13766 9.97769C7.04952 10.0658 7 10.1854 7 10.31V12.66H9.34C9.40172 12.66 9.46284 12.6722 9.51986 12.6958C9.57688 12.7194 9.6287 12.754 9.67234 12.7977C9.71598 12.8413 9.7506 12.8931 9.77422 12.9502C9.79784 13.0072 9.81 13.0683 9.81 13.13V16.88C9.80738 17.0029 9.75671 17.1199 9.66885 17.2059C9.58099 17.2919 9.46294 17.3401 9.34 17.34H7V19.69C7 19.8147 7.04952 19.9342 7.13766 20.0224C7.2258 20.1105 7.34535 20.16 7.47 20.16H14.53V17.3C14.0019 17.1893 13.5281 16.9003 13.188 16.4815C12.8478 16.0627 12.6622 15.5396 12.6622 15C12.6622 14.4605 12.8478 13.9374 13.188 13.5186C13.5281 13.0998 14.0019 12.8107 14.53 12.7ZM7 13.59V16.41H8.87V13.59H7ZM15.47 13.67V16.33C15.7453 16.2331 15.9838 16.0531 16.1525 15.8149C16.3212 15.5766 16.4118 15.2919 16.4118 15C16.4118 14.7081 16.3212 14.4234 16.1525 14.1852C15.9838 13.947 15.7453 13.767 15.47 13.67V13.67ZM13.59 15C13.5927 15.291 13.6842 15.5743 13.8522 15.8119C14.0201 16.0496 14.2566 16.2303 14.53 16.33V13.67C14.2566 13.7697 14.0201 13.9505 13.8522 14.1881C13.6842 14.4258 13.5927 14.709 13.59 15V15ZM20.66 12.66H23V10.31C23 10.1854 22.9505 10.0658 22.8623 9.97769C22.7742 9.88954 22.6547 9.84003 22.53 9.84003H15.47V12.7C15.9981 12.8107 16.4719 13.0998 16.812 13.5186C17.1522 13.9374 17.3378 14.4605 17.3378 15C17.3378 15.5396 17.1522 16.0627 16.812 16.4815C16.4719 16.9003 15.9981 17.1893 15.47 17.3V20.16H22.53C22.6547 20.16 22.7742 20.1105 22.8623 20.0224C22.9505 19.9342 23 19.8147 23 19.69V17.34H20.66C20.5371 17.3401 20.419 17.2919 20.3311 17.2059C20.2433 17.1199 20.1926 17.0029 20.19 16.88V13.13C20.19 13.0054 20.2395 12.8858 20.3277 12.7977C20.4158 12.7095 20.5353 12.66 20.66 12.66V12.66ZM21.12 13.59V16.41H23V13.59H21.12Z" fill="white"/>
</g>
<defs>
<clipPath id="clip0">
<rect width="30" height="34" fill="white"/>
</clipPath>
</defs>
</svg>
