<svg width="157" height="157" viewBox="0 0 157 157" fill="none" xmlns="http://www.w3.org/2000/svg">
<circle cx="78.5" cy="78.5" r="70.5" fill="white"/>
<path fill-rule="evenodd" clip-rule="evenodd" d="M129.978 57.7186C129.916 57.5641 129.853 57.4098 129.789 57.2558C127.08 50.7097 123.066 44.5768 117.744 39.2556C112.423 33.9344 106.29 29.9196 99.7442 27.2112C99.5902 27.1474 99.4359 27.0844 99.2813 27.0221C99.1267 26.9598 98.9718 26.8982 98.8167 26.8373C98.6117 27.3456 98.8544 27.9252 99.3619 28.1352C105.789 30.7942 111.811 34.736 117.037 39.9627C122.264 45.1893 126.206 51.2113 128.865 57.6381C129.075 58.1456 129.654 58.3883 130.163 58.1832C130.102 58.0281 130.04 57.8733 129.978 57.7186ZM130.163 98.8168C129.654 98.6117 129.075 98.8544 128.865 99.3619C126.206 105.789 122.264 111.811 117.037 117.037C111.811 122.264 105.789 126.206 99.3619 128.865C98.8544 129.075 98.6117 129.654 98.8167 130.163C98.9718 130.102 99.1267 130.04 99.2813 129.978C99.4358 129.916 99.5901 129.853 99.7442 129.789C106.29 127.08 112.423 123.066 117.744 117.744C123.066 112.423 127.08 106.29 129.789 99.7443C129.853 99.5902 129.916 99.4359 129.978 99.2814C130.04 99.1267 130.102 98.9719 130.163 98.8168ZM58.1832 130.163C58.3882 129.654 58.1456 129.075 57.638 128.865C51.2113 126.206 45.1893 122.264 39.9626 117.037C34.736 111.811 30.7942 105.789 28.1352 99.3619C27.9252 98.8544 27.3455 98.6117 26.8372 98.8168C26.8981 98.9719 26.9597 99.1267 27.0221 99.2814C27.0844 99.4359 27.1474 99.5902 27.2111 99.7442C29.9195 106.29 33.9343 112.423 39.2555 117.744C44.5767 123.066 50.7097 127.08 57.2557 129.789C57.4098 129.853 57.5641 129.916 57.7186 129.978C57.8732 130.04 58.0281 130.102 58.1832 130.163ZM26.8372 58.1832C27.3455 58.3883 27.9252 58.1456 28.1352 57.6381C30.7942 51.2113 34.736 45.1893 39.9626 39.9627C45.1893 34.736 51.2113 30.7942 57.638 28.1352C58.1456 27.9252 58.3882 27.3456 58.1832 26.8373C58.0281 26.8981 57.8732 26.9598 57.7186 27.0221C57.5641 27.0844 57.4098 27.1474 57.2557 27.2112C50.7097 29.9196 44.5767 33.9344 39.2555 39.2556C33.9343 44.5768 29.9195 50.7097 27.2111 57.2557C27.1474 57.4098 27.0844 57.5641 27.0221 57.7186C26.9597 57.8733 26.8981 58.0281 26.8372 58.1832Z" fill="#EEEFF5"/>
<path d="M74.9865 26L78 22.9865L81.0135 26H84L78 20L72 26H74.9865Z" fill="#5D76CB"/>
<path d="M131 74.9865L134.013 78L131 81.0135L131 84L137 78L131 72L131 74.9865Z" fill="#373745"/>
<path d="M74.9865 131L78 134.013L81.0135 131H84L78 137L72 131H74.9865Z" fill="#E93E3E"/>
<path d="M26 74.9865L22.9865 78L26 81.0135L26 84L20 78L26 72L26 74.9865Z" fill="#373745"/>
<path d="M82.6094 41.2969C82.4948 42.5104 82.0469 43.4583 81.2656 44.1406C80.4844 44.8177 79.4453 45.1562 78.1484 45.1562C77.2422 45.1562 76.4427 44.9427 75.75 44.5156C75.0625 44.0833 74.5312 43.4714 74.1562 42.6797C73.7812 41.888 73.5859 40.9688 73.5703 39.9219V38.8594C73.5703 37.7865 73.7604 36.8411 74.1406 36.0234C74.5208 35.2057 75.0651 34.5755 75.7734 34.1328C76.487 33.6901 77.3099 33.4688 78.2422 33.4688C79.4974 33.4688 80.5078 33.8099 81.2734 34.4922C82.0391 35.1745 82.4844 36.138 82.6094 37.3828H80.6406C80.5469 36.5651 80.3073 35.9766 79.9219 35.6172C79.5417 35.2526 78.9818 35.0703 78.2422 35.0703C77.3828 35.0703 76.7214 35.3854 76.2578 36.0156C75.7995 36.6406 75.5651 37.5599 75.5547 38.7734V39.7812C75.5547 41.0104 75.7734 41.9479 76.2109 42.5938C76.6536 43.2396 77.2995 43.5625 78.1484 43.5625C78.9245 43.5625 79.5078 43.388 79.8984 43.0391C80.2891 42.6901 80.5365 42.1094 80.6406 41.2969H82.6094Z" fill="#5D76CB"/>
<path d="M84.7266 116.609C84.7266 117.724 84.5339 118.703 84.1484 119.547C83.763 120.385 83.2109 121.031 82.4922 121.484C81.7786 121.932 80.9557 122.156 80.0234 122.156C79.1536 122.156 78.375 121.958 77.6875 121.562C77 121.167 76.4505 120.599 76.0391 119.859C75.6276 119.12 75.3854 118.258 75.3125 117.273H73.8906V122H71.9219V110.625H73.8906V115.742H75.2891C75.3203 114.695 75.5365 113.771 75.9375 112.969C76.3385 112.161 76.8906 111.544 77.5938 111.117C78.3021 110.685 79.1068 110.469 80.0078 110.469C80.9349 110.469 81.7552 110.693 82.4688 111.141C83.1875 111.583 83.7422 112.224 84.1328 113.062C84.5234 113.896 84.7214 114.867 84.7266 115.977V116.609ZM82.75 116.016C82.75 114.755 82.5104 113.789 82.0312 113.117C81.5573 112.445 80.8828 112.109 80.0078 112.109C79.1536 112.109 78.4844 112.445 78 113.117C77.5208 113.784 77.276 114.729 77.2656 115.953V116.609C77.2656 117.859 77.5078 118.826 77.9922 119.508C78.4818 120.19 79.1589 120.531 80.0234 120.531C80.8984 120.531 81.5703 120.198 82.0391 119.531C82.513 118.865 82.75 117.891 82.75 116.609V116.016Z" fill="#E93E3E"/>
<path d="M46.0078 74.7266C46.0078 74.2161 45.8151 73.8099 45.4297 73.5078C45.0443 73.2057 44.5208 73.0547 43.8594 73.0547C43.2917 73.0547 42.8177 73.2057 42.4375 73.5078C42.0573 73.8047 41.8672 74.1901 41.8672 74.6641H39.8984C39.8984 74.0443 40.0703 73.4922 40.4141 73.0078C40.7578 72.5234 41.2344 72.1484 41.8438 71.8828C42.4531 71.612 43.125 71.4766 43.8594 71.4766C45.1615 71.4766 46.1719 71.7604 46.8906 72.3281C47.6146 72.8958 47.9766 73.6901 47.9766 74.7109C47.9766 75.2266 47.8203 75.7005 47.5078 76.1328C47.1953 76.5651 46.7578 76.9062 46.1953 77.1562C46.8307 77.375 47.3151 77.7083 47.6484 78.1562C47.987 78.599 48.1562 79.151 48.1562 79.8125C48.1562 80.8333 47.7656 81.6458 46.9844 82.25C46.2031 82.849 45.1615 83.1484 43.8594 83.1484C43.0573 83.1484 42.3307 83.0052 41.6797 82.7188C41.0339 82.4323 40.5469 82.0417 40.2188 81.5469C39.8958 81.0521 39.7344 80.4844 39.7344 79.8438H41.7031C41.7031 80.3333 41.9062 80.7474 42.3125 81.0859C42.7188 81.4193 43.2344 81.5859 43.8594 81.5859C44.5573 81.5859 45.1172 81.4219 45.5391 81.0938C45.9661 80.7656 46.1797 80.3385 46.1797 79.8125C46.1797 79.1719 45.9922 78.7083 45.6172 78.4219C45.2474 78.1302 44.7031 77.9844 43.9844 77.9844H42.6484V76.4219H43.9141C45.3099 76.4219 46.0078 75.8568 46.0078 74.7266Z" fill="#373745"/>
<path d="M109.109 83V71.625H113.008C114.294 71.625 115.273 71.8828 115.945 72.3984C116.617 72.9141 116.953 73.6823 116.953 74.7031C116.953 75.224 116.812 75.6927 116.531 76.1094C116.25 76.526 115.839 76.849 115.297 77.0781C115.911 77.2448 116.385 77.5599 116.719 78.0234C117.057 78.4818 117.227 79.0339 117.227 79.6797C117.227 80.7474 116.883 81.5677 116.195 82.1406C115.513 82.7135 114.534 83 113.258 83H109.109ZM111.086 77.8672V81.4219H113.281C113.901 81.4219 114.385 81.2682 114.734 80.9609C115.083 80.6536 115.258 80.2266 115.258 79.6797C115.258 78.4974 114.654 77.8932 113.445 77.8672H111.086ZM111.086 76.4141H113.023C113.638 76.4141 114.117 76.276 114.461 76C114.81 75.7188 114.984 75.3229 114.984 74.8125C114.984 74.25 114.823 73.8438 114.5 73.5938C114.182 73.3438 113.685 73.2188 113.008 73.2188H111.086V76.4141Z" fill="#373745"/>
<rect x="78" y="66" width="1" height="25" rx="0.5" fill="#CACFE7"/>
<rect x="66" y="78" width="25" height="1" rx="0.5" fill="#CACFE7"/>
</svg>
