<svg width="30" height="34" viewBox="0 0 30 34" fill="none" xmlns="http://www.w3.org/2000/svg">
<g clip-path="url(#clip0)">
<path d="M30 15C30.0036 12.3314 29.2952 9.7101 27.9479 7.40657C26.6005 5.10303 24.6631 3.20064 22.3353 1.89563C20.0075 0.590626 17.3737 -0.0697491 14.7056 -0.0173737C12.0375 0.0350016 9.43166 0.798231 7.15689 2.19359C4.88213 3.58894 3.0208 5.5659 1.76491 7.92054C0.509016 10.2752 -0.0959655 12.9222 0.012367 15.5887C0.120699 18.2551 0.938424 20.8443 2.38119 23.0893C3.82396 25.3343 5.83953 27.1538 8.21999 28.36C10.5915 29.5652 12.6939 31.239 14.4 33.28L15 34L15.6 33.28C17.2142 31.2805 19.2357 29.6476 21.53 28.49C24.0661 27.2636 26.2056 25.3479 27.7035 22.9622C29.2015 20.5764 29.9974 17.817 30 15Z" fill="#3172F4"/>
<path d="M22.59 20.04C22.7632 19.9645 22.9072 19.8346 23 19.67L22.96 19.42C22.74 19.04 22.46 19.02 22.15 19.19C21.84 19.36 21.5 19.52 21.15 19.68C21.1139 19.5896 21.085 19.4992 21.0568 19.4111C21.0382 19.3529 21.0199 19.2956 21 19.24C20.6417 18.2818 20.3967 17.2851 20.27 16.27C20.245 16.08 20.2225 15.89 20.2 15.7C20.1775 15.51 20.155 15.32 20.13 15.13C20.1006 14.997 20.0605 14.8665 20.01 14.74C20.2218 14.9136 20.4222 15.1007 20.61 15.3C20.8408 15.5999 20.9997 15.9489 21.0742 16.3199C21.1488 16.691 21.1371 17.0742 21.04 17.44C21.0236 17.5011 21.0198 17.5649 21.0286 17.6275C21.0375 17.6901 21.0589 17.7503 21.0916 17.8045C21.1243 17.8586 21.1675 17.9056 21.2188 17.9427C21.2701 17.9797 21.3283 18.006 21.39 18.02C21.4531 18.033 21.5182 18.0331 21.5814 18.0204C21.6446 18.0077 21.7046 17.9824 21.7578 17.946C21.811 17.9096 21.8563 17.8628 21.8911 17.8086C21.9258 17.7543 21.9492 17.6935 21.96 17.63C21.969 17.5822 21.9797 17.5352 21.9904 17.4887C22.0154 17.3794 22.04 17.2722 22.04 17.16C22.1199 16.627 22.0585 16.0823 21.862 15.5804C21.6654 15.0785 21.3406 14.637 20.92 14.3C20.2248 13.752 19.3745 13.437 18.49 13.4H16.34V14.64C16.362 14.9496 16.2833 15.2581 16.1157 15.5194C15.9481 15.7807 15.7006 15.9808 15.41 16.09V17.09C16.2922 17.1752 17.1284 17.5236 17.81 18.09C18.4826 18.6553 19.0019 19.381 19.32 20.2C16.4164 21.0648 13.3237 21.0648 10.42 20.2C10.5436 20.024 10.6616 19.848 10.7781 19.674C10.9728 19.3836 11.1636 19.0989 11.37 18.83C11.9436 18.0478 12.7765 17.4949 13.72 17.27C13.8672 17.2332 14.0181 17.2077 14.1704 17.1819C14.2666 17.1657 14.3633 17.1493 14.46 17.13V16.24C14.47 16.14 14.43 16.06 14.34 16.06C14.1319 15.9777 13.9492 15.8419 13.8105 15.6662C13.6718 15.4906 13.5819 15.2815 13.55 15.06V13.75C13.55 13.507 13.5567 13.2629 13.5633 13.0185C13.5767 12.5285 13.59 12.037 13.55 11.55C13.4766 10.5917 13.0697 9.68937 12.4 8.99998C12.0027 8.62337 11.5324 8.33231 11.0181 8.14482C10.5038 7.95733 9.95645 7.8774 9.41001 7.90998C9.33826 7.89865 9.26486 7.90411 9.19558 7.92591C9.12629 7.94772 9.063 7.98529 9.01068 8.03568C8.95836 8.08606 8.91843 8.14789 8.89402 8.21631C8.86961 8.28472 8.86139 8.35786 8.87001 8.42999V9.56998C8.86681 9.65945 8.83128 9.74472 8.77001 9.80999C8.65001 9.93998 8.52251 10.065 8.39501 10.19C8.26751 10.315 8.14001 10.44 8.02001 10.57C7.80491 10.7839 7.65216 11.0525 7.57816 11.3467C7.50417 11.6409 7.51172 11.9497 7.60001 12.24C7.68605 12.6141 7.90705 12.9434 8.2207 13.1648C8.53436 13.3862 8.91864 13.4842 9.30001 13.44C9.61802 13.3925 9.91988 13.269 10.18 13.08C10.3302 15.374 9.82378 17.6634 8.72001 19.68L7.72001 19.17C7.66498 19.138 7.60413 19.1172 7.54101 19.1089C7.47788 19.1007 7.41374 19.105 7.35232 19.1218C7.2909 19.1385 7.23342 19.1673 7.18324 19.2065C7.13305 19.2457 7.09116 19.2945 7.06001 19.35C7.02992 19.4073 7.012 19.4702 7.00737 19.5348C7.00274 19.5993 7.01149 19.6642 7.03309 19.7252C7.05468 19.7862 7.08865 19.8421 7.13286 19.8894C7.17707 19.9367 7.23057 19.9743 7.29001 20C9.22061 21.0064 11.331 21.6215 13.5 21.81C14.7326 21.918 15.9733 21.8912 17.2 21.73C19.0793 21.4755 20.9018 20.904 22.59 20.04Z" fill="white"/>
<path d="M15.46 13.5L14.53 13.37L14.52 14.84C14.52 14.9017 14.5322 14.9628 14.5558 15.0199C14.5794 15.0769 14.614 15.1287 14.6577 15.1723C14.7013 15.216 14.7531 15.2506 14.8102 15.2742C14.8672 15.2978 14.9283 15.31 14.99 15.31C15.0517 15.31 15.1129 15.2978 15.1699 15.2742C15.2269 15.2506 15.2787 15.216 15.3224 15.1723C15.366 15.1287 15.4006 15.0769 15.4242 15.0199C15.4479 14.9628 15.46 14.9017 15.46 14.84V13.57C15.4615 13.5467 15.4615 13.5233 15.46 13.5Z" fill="white"/>
</g>
<defs>
<clipPath id="clip0">
<rect width="30" height="34" fill="white"/>
</clipPath>
</defs>
</svg>
