<svg width="30" height="34" viewBox="0 0 30 34" fill="none" xmlns="http://www.w3.org/2000/svg">
<g clip-path="url(#clip0)">
<path d="M30 15C30.0036 12.3314 29.2952 9.7101 27.9479 7.40657C26.6005 5.10303 24.6631 3.20064 22.3353 1.89563C20.0075 0.590626 17.3737 -0.0697491 14.7056 -0.0173737C12.0375 0.0350016 9.43166 0.798231 7.15689 2.19359C4.88213 3.58894 3.0208 5.5659 1.76491 7.92054C0.509016 10.2752 -0.0959655 12.9222 0.012367 15.5887C0.120699 18.2551 0.938424 20.8443 2.38119 23.0893C3.82396 25.3343 5.83953 27.1538 8.21999 28.36C10.5915 29.5652 12.6939 31.239 14.4 33.28L15 34L15.6 33.28C17.2142 31.2805 19.2357 29.6476 21.53 28.49C24.0661 27.2636 26.2056 25.3479 27.7035 22.9622C29.2015 20.5764 29.9974 17.817 30 15Z" fill="#94E05A"/>
<path d="M7.06 23.33H6.99C6.88735 23.2843 6.80351 23.2048 6.75253 23.1046C6.70156 23.0045 6.68654 22.8899 6.71 22.78C6.7338 22.6672 6.79742 22.5667 6.88924 22.4969C6.98105 22.4271 7.09491 22.3927 7.21 22.4H9.11V15.85H10.11V22.34H11.6V20.34H11.17C11.0374 20.34 10.9102 20.2873 10.8165 20.1936C10.7227 20.0998 10.67 19.9726 10.67 19.84C10.67 19.7074 10.7227 19.5802 10.8165 19.4864C10.9102 19.3927 11.0374 19.34 11.17 19.34H11.61V16.34C11.5993 16.2204 11.6149 16.1 11.6559 15.9871C11.6968 15.8743 11.762 15.7718 11.8469 15.6869C11.9318 15.602 12.0343 15.5368 12.1471 15.4959C12.26 15.4549 12.3804 15.4393 12.5 15.45H17.56C17.6796 15.4393 17.8 15.4549 17.9129 15.4959C18.0257 15.5368 18.1282 15.602 18.2131 15.6869C18.298 15.7718 18.3632 15.8743 18.4041 15.9871C18.4451 16.1 18.4607 16.2204 18.45 16.34V19.34H18.89C19.0226 19.34 19.1498 19.3927 19.2436 19.4864C19.3373 19.5802 19.39 19.7074 19.39 19.84C19.39 19.9726 19.3373 20.0998 19.2436 20.1936C19.1498 20.2873 19.0226 20.34 18.89 20.34H18.47V22.34H19.95V15.85H20.95V22.36H22.81C22.9324 22.3443 23.0563 22.3744 23.1578 22.4446C23.2594 22.5147 23.3314 22.6199 23.36 22.74C23.3813 22.8587 23.3598 22.9811 23.2994 23.0854C23.2389 23.1898 23.1435 23.2693 23.03 23.31C23.03 23.31 23.03 23.31 23.03 23.31L7.06 23.33ZM12.57 20.38V22.38H17.43V20.38H12.57ZM12.57 18.38V19.38H17.43V18.38H12.57ZM23.33 11.51V11.41C23.2566 10.8152 23.0097 10.2553 22.62 9.8C22.5971 9.77062 22.5808 9.73666 22.5722 9.70043C22.5636 9.6642 22.5628 9.62654 22.57 9.59C22.6598 9.20855 22.6598 8.81145 22.57 8.43C22.5134 8.13511 22.3976 7.85475 22.2296 7.60591C22.0615 7.35706 21.8447 7.14489 21.5923 6.98223C21.3399 6.81957 21.0572 6.70981 20.7611 6.65958C20.4651 6.60935 20.1619 6.6197 19.87 6.69C19.5758 6.76649 19.2998 6.9008 19.058 7.08508C18.8162 7.26937 18.6136 7.49995 18.4619 7.76337C18.3101 8.02679 18.2124 8.31778 18.1743 8.61937C18.1362 8.92097 18.1585 9.22713 18.24 9.52C18.2591 9.57622 18.2627 9.63654 18.2504 9.69462C18.238 9.7527 18.2103 9.80638 18.17 9.85C17.8785 10.201 17.6687 10.6123 17.5556 11.0543C17.4425 11.4962 17.429 11.9578 17.5161 12.4056C17.6032 12.8534 17.7886 13.2763 18.0591 13.6437C18.3296 14.0111 18.6783 14.3138 19.08 14.53C19.3347 14.667 19.6129 14.7552 19.9 14.79C19.9 14.27 19.9 13.79 19.9 13.26C19.9042 13.1797 19.8922 13.0993 19.8647 13.0237C19.8372 12.9482 19.7948 12.8789 19.74 12.82C19.57 12.63 19.41 12.42 19.25 12.22C19.2093 12.1701 19.1788 12.1127 19.1603 12.051C19.1418 11.9893 19.1356 11.9246 19.1421 11.8605C19.1486 11.7964 19.1677 11.7343 19.1982 11.6776C19.2287 11.6208 19.2701 11.5707 19.32 11.53C19.3699 11.4893 19.4273 11.4588 19.489 11.4403C19.5507 11.4218 19.6154 11.4156 19.6795 11.4221C19.7436 11.4286 19.8057 11.4477 19.8624 11.4782C19.9192 11.5087 19.9693 11.5501 20.01 11.6C20.13 11.76 20.26 11.91 20.38 12.06C20.52 11.91 20.65 11.75 20.78 11.6C20.8196 11.545 20.8698 11.4984 20.9277 11.463C20.9855 11.4275 21.0499 11.404 21.1169 11.3938C21.1839 11.3835 21.2524 11.3868 21.3181 11.4033C21.3839 11.4198 21.4458 11.4493 21.5 11.49C21.553 11.536 21.5955 11.5928 21.6246 11.6567C21.6537 11.7205 21.6688 11.7898 21.6688 11.86C21.6688 11.9302 21.6537 11.9995 21.6246 12.0633C21.5955 12.1272 21.553 12.184 21.5 12.23C21.3 12.47 21.1 12.7 20.91 12.94C20.8559 13.0049 20.8243 13.0856 20.82 13.17C20.82 13.68 20.82 14.17 20.82 14.68C20.815 14.7265 20.815 14.7735 20.82 14.82H20.92C21.4444 14.7098 21.9279 14.456 22.3164 14.087C22.7049 13.7179 22.9831 13.2481 23.12 12.73C23.1739 12.5324 23.2173 12.3322 23.25 12.13L23.33 11.51ZM11.27 14.31C11.6125 14.0594 11.8996 13.7407 12.1131 13.3739C12.3266 13.0071 12.4621 12.6002 12.5109 12.1786C12.5597 11.757 12.5209 11.3299 12.3968 10.924C12.2728 10.5181 12.0662 10.1423 11.79 9.82C11.7659 9.78277 11.7531 9.73936 11.7531 9.695C11.7531 9.65064 11.7659 9.60723 11.79 9.57C11.8863 9.24581 11.9102 8.90444 11.86 8.57C11.8148 8.26019 11.7053 7.9633 11.5383 7.69846C11.3713 7.43362 11.1507 7.20672 10.8906 7.03241C10.6306 6.85809 10.3368 6.74023 10.0284 6.68642C9.72 6.63261 9.40373 6.64405 9.1 6.72C8.80103 6.7964 8.52038 6.93192 8.27465 7.11858C8.02891 7.30523 7.82307 7.53923 7.66926 7.80675C7.51546 8.07428 7.41682 8.36991 7.37916 8.67618C7.3415 8.98246 7.36559 9.29318 7.45 9.59C7.4707 9.6387 7.47605 9.69256 7.46533 9.74438C7.45461 9.7962 7.42833 9.84351 7.39 9.88C7.09599 10.2289 6.88346 10.639 6.76787 11.0804C6.65228 11.5218 6.63653 11.9834 6.72178 12.4317C6.80702 12.88 6.99111 13.3036 7.26066 13.6717C7.53021 14.0399 7.87843 14.3433 8.28 14.56C8.53575 14.7048 8.81802 14.7966 9.11 14.83V13.17C9.11 13.17 9.11 13.17 9.11 13.11C9.08016 13.0671 9.04291 13.0298 9 13C8.82 12.76 8.63 12.54 8.45 12.31C8.40929 12.2601 8.37881 12.2027 8.3603 12.141C8.34178 12.0793 8.3356 12.0146 8.3421 11.9505C8.3486 11.8864 8.36766 11.8243 8.39818 11.7676C8.42871 11.7108 8.4701 11.6607 8.52 11.62C8.56991 11.5793 8.62734 11.5488 8.68902 11.5303C8.7507 11.5118 8.81543 11.5056 8.8795 11.5121C8.94357 11.5186 9.00574 11.5377 9.06245 11.5682C9.11915 11.5987 9.16929 11.6401 9.21 11.69L9.58 12.15L10.02 11.63C10.1025 11.527 10.2224 11.4607 10.3535 11.4458C10.4847 11.4308 10.6164 11.4682 10.72 11.55C10.7715 11.5923 10.8138 11.6446 10.8444 11.7038C10.8749 11.763 10.8931 11.8278 10.8978 11.8942C10.9025 11.9607 10.8936 12.0274 10.8716 12.0903C10.8496 12.1532 10.8151 12.2109 10.77 12.26C10.6375 12.4357 10.4939 12.6027 10.34 12.76C10.23 12.8617 10.1462 12.9884 10.0957 13.1294C10.0452 13.2705 10.0295 13.4216 10.05 13.57C10.05 14 10.05 14.43 10.05 14.87C10.4954 14.8073 10.9163 14.6279 11.27 14.35V14.31Z" fill="white"/>
</g>
<defs>
<clipPath id="clip0">
<rect width="30" height="34" fill="white"/>
</clipPath>
</defs>
</svg>
