<svg width="24" height="24" viewBox="0 0 24 24" fill="none" xmlns="http://www.w3.org/2000/svg">
<path d="M12.8499 17.9623C13.1574 17.8565 13.5675 17.7011 14.0833 17.4994L14.252 16.7983C14.1627 16.8413 14.0205 16.8876 13.8254 16.9438C13.627 16.9967 13.4517 17.0232 13.2963 17.0232C12.9623 17.0232 12.7275 16.9703 12.5952 16.8612C12.4597 16.752 12.3935 16.5437 12.3935 16.2428C12.3935 16.1237 12.4134 15.9452 12.453 15.7137C12.496 15.4822 12.5423 15.2739 12.5952 15.092L13.2368 12.8235C13.2996 12.6118 13.3426 12.3836 13.3657 12.1356C13.3889 11.8876 13.3988 11.7123 13.3988 11.6131C13.3988 11.137 13.2302 10.7467 12.8962 10.4491C12.5622 10.1515 12.0827 9.99939 11.4643 9.99939C11.1237 9.99939 10.7566 10.0622 10.373 10.1846C9.98611 10.3069 9.58267 10.4524 9.1627 10.6244L8.99074 11.3254C9.1164 11.2791 9.26521 11.2295 9.44047 11.1766C9.61574 11.127 9.7877 11.1006 9.95304 11.1006C10.2903 11.1006 10.5185 11.1568 10.6409 11.2725C10.7599 11.385 10.8194 11.59 10.8194 11.8777C10.8194 12.0397 10.8029 12.2183 10.7632 12.4134C10.7235 12.6085 10.6739 12.8135 10.6177 13.0318L9.97288 15.3069C9.91666 15.5483 9.87367 15.76 9.85053 15.9518C9.82407 16.1403 9.81084 16.3254 9.81084 16.5073C9.81084 16.9769 9.9828 17.3638 10.3267 17.6647C10.6739 17.969 11.1601 18.1211 11.7817 18.1211C12.1885 18.1211 12.5423 18.0682 12.8499 17.9623Z" fill="#E93E3E"/>
<path d="M12.8895 8.7064C13.3095 8.7064 13.67 8.56751 13.9676 8.28973C14.2685 8.01195 14.4173 7.67465 14.4173 7.28113C14.4173 6.88761 14.2685 6.54701 13.9676 6.26592C13.67 5.98484 13.3095 5.84595 12.8895 5.84595C12.4696 5.84595 12.1058 5.98484 11.8049 6.26592C11.5073 6.54701 11.3552 6.88761 11.3552 7.28113C11.3552 7.67465 11.504 8.01195 11.8049 8.28973C12.1058 8.56751 12.4696 8.7064 12.8895 8.7064Z" fill="#E93E3E"/>
<path fill-rule="evenodd" clip-rule="evenodd" d="M12 2C6.47751 2 2 6.47751 2 12C2 17.5225 6.47751 22 12 22C17.5225 22 22 17.5225 22 12C22 6.47751 17.5225 2 12 2ZM4 12C4 7.58208 7.58208 4 12 4C16.4179 4 20 7.58208 20 12C20 16.4179 16.4179 20 12 20C7.58208 20 4 16.4179 4 12Z" fill="#E93E3E"/>
</svg>
