<svg width="24" height="24" viewBox="0 0 24 24" fill="none" xmlns="http://www.w3.org/2000/svg">
<path d="M17 15.25H19.25V13C19.25 12.5858 19.5858 12.25 20 12.25C20.4142 12.25 20.75 12.5858 20.75 13V15.25H23C23.4142 15.25 23.75 15.5858 23.75 16C23.75 16.4142 23.4142 16.75 23 16.75H20.75V19C20.75 19.4142 20.4142 19.75 20 19.75C19.5858 19.75 19.25 19.4142 19.25 19V16.75H17C16.5858 16.75 16.25 16.4142 16.25 16C16.25 15.5858 16.5858 15.25 17 15.25Z" fill="black" fill-opacity="0.87"/>
<path d="M21.1186 5.70846L10.7667 16.0694C10.6691 16.1671 10.5107 16.1672 10.4131 16.0695L7.23178 12.8882C6.94005 12.5965 6.94005 12.1235 7.23178 11.8318C7.52351 11.54 7.99649 11.54 8.28822 11.8318L10.2364 13.78C10.4317 13.9753 10.7483 13.9753 10.9436 13.78L20.0666 4.65694C20.3563 4.36723 20.8258 4.3664 21.1165 4.65507C21.4086 4.9451 21.4096 5.41726 21.1186 5.70846Z" fill="black" fill-opacity="0.87"/>
<path d="M3.75 12C3.75 16.5481 7.45193 20.25 12 20.25C12.9421 20.25 13.8466 20.0866 14.6887 19.7893C15.0231 19.6713 15.3857 19.7392 15.6181 19.9716C16.0032 20.3567 15.8827 20.9566 15.4274 21.1285C14.3612 21.5309 13.2058 21.75 12 21.75C6.61807 21.75 2.25 17.3819 2.25 12C2.25 6.61807 6.61807 2.25 12 2.25C13.6493 2.25 15.1999 2.66188 16.5648 3.38346C16.9615 3.59318 17.0346 4.14185 16.6851 4.49135C16.4316 4.74485 16.0238 4.79468 15.6767 4.62059C14.5678 4.06435 13.3179 3.75 12 3.75C7.45193 3.75 3.75 7.45193 3.75 12Z" fill="black" fill-opacity="0.87"/>
</svg>
